<svg viewBox="0 0 330 200" xmlns="http://www.w3.org/2000/svg"><g><g><g><g><g><line x1="53.1875" y1="177" x2="48.1875" y2="177" style="visibility: inherit;" fill="rgb(0, 0, 0)" stroke="rgb(204, 204, 204)" stroke-width="1px"></line><line x1="53.1875" y1="163.3846153846154" x2="48.1875" y2="163.3846153846154" style="visibility: inherit;" fill="rgb(0, 0, 0)" stroke="rgb(204, 204, 204)" stroke-width="1px"></line><line x1="53.1875" y1="149.76923076923077" x2="48.1875" y2="149.76923076923077" style="visibility: inherit;" fill="rgb(0, 0, 0)" stroke="rgb(204, 204, 204)" stroke-width="1px"></line><line x1="53.1875" y1="136.15384615384613" x2="48.1875" y2="136.15384615384613" style="visibility: inherit;" fill="rgb(0, 0, 0)" stroke="rgb(204, 204, 204)" stroke-width="1px"></line><line x1="53.1875" y1="122.53846153846153" x2="48.1875" y2="122.53846153846153" style="visibility: inherit;" fill="rgb(0, 0, 0)" stroke="rgb(204, 204, 204)" stroke-width="1px"></line><line x1="53.1875" y1="108.92307692307693" x2="48.1875" y2="108.92307692307693" style="visibility: inherit;" fill="rgb(0, 0, 0)" stroke="rgb(204, 204, 204)" stroke-width="1px"></line><line x1="53.1875" y1="95.30769230769232" x2="48.1875" y2="95.30769230769232" style="visibility: inherit;" fill="rgb(0, 0, 0)" stroke="rgb(204, 204, 204)" stroke-width="1px"></line><line x1="53.1875" y1="81.6923076923077" x2="48.1875" y2="81.6923076923077" style="visibility: inherit;" fill="rgb(0, 0, 0)" stroke="rgb(204, 204, 204)" stroke-width="1px"></line><line x1="53.1875" y1="68.0769230769231" x2="48.1875" y2="68.0769230769231" style="visibility: inherit;" fill="rgb(0, 0, 0)" stroke="rgb(204, 204, 204)" stroke-width="1px"></line><line x1="53.1875" y1="54.46153846153847" x2="48.1875" y2="54.46153846153847" style="visibility: inherit;" fill="rgb(0, 0, 0)" stroke="rgb(204, 204, 204)" stroke-width="1px"></line><line x1="53.1875" y1="40.84615384615386" x2="48.1875" y2="40.84615384615386" style="visibility: inherit;" fill="rgb(0, 0, 0)" stroke="rgb(204, 204, 204)" stroke-width="1px"></line><line x1="53.1875" y1="27.230769230769234" x2="48.1875" y2="27.230769230769234" style="visibility: inherit;" fill="rgb(0, 0, 0)" stroke="rgb(204, 204, 204)" stroke-width="1px"></line><line x1="53.1875" y1="13.615384615384606" x2="48.1875" y2="13.615384615384606" style="visibility: inherit;" fill="rgb(0, 0, 0)" stroke="rgb(204, 204, 204)" stroke-width="1px"></line><line x1="53.1875" y1="0" x2="48.1875" y2="0" style="visibility: inherit;" fill="rgb(0, 0, 0)" stroke="rgb(204, 204, 204)" stroke-width="1px"></line></g><g transform="translate(43.1875, 0)"><text x="0" y="177" dx="0em" dy="0.3em" style="text-anchor: end; visibility: hidden; font-family: Roboto, sans-serif; font-size: 12px; font-weight: 200;" fill="rgb(50, 49, 63)" stroke="none" stroke-width="1px">-0.1</text><text x="0" y="163.3846153846154" dx="0em" dy="0.3em" style="text-anchor: end; visibility: inherit; font-family: Roboto, sans-serif; font-size: 12px; font-weight: 200;" fill="rgb(50, 49, 63)" stroke="none" stroke-width="1px">0</text><text x="0" y="149.76923076923077" dx="0em" dy="0.3em" style="text-anchor: end; visibility: hidden; font-family: Roboto, sans-serif; font-size: 12px; font-weight: 200;" fill="rgb(50, 49, 63)" stroke="none" stroke-width="1px">0.1</text><text x="0" y="136.15384615384613" dx="0em" dy="0.3em" style="text-anchor: end; visibility: inherit; font-family: Roboto, sans-serif; font-size: 12px; font-weight: 200;" fill="rgb(50, 49, 63)" stroke="none" stroke-width="1px">0.2</text><text x="0" y="122.53846153846153" dx="0em" dy="0.3em" style="text-anchor: end; visibility: hidden; font-family: Roboto, sans-serif; font-size: 12px; font-weight: 200;" fill="rgb(50, 49, 63)" stroke="none" stroke-width="1px">0.3</text><text x="0" y="108.92307692307693" dx="0em" dy="0.3em" style="text-anchor: end; visibility: inherit; font-family: Roboto, sans-serif; font-size: 12px; font-weight: 200;" fill="rgb(50, 49, 63)" stroke="none" stroke-width="1px">0.4</text><text x="0" y="95.30769230769232" dx="0em" dy="0.3em" style="text-anchor: end; visibility: hidden; font-family: Roboto, sans-serif; font-size: 12px; font-weight: 200;" fill="rgb(50, 49, 63)" stroke="none" stroke-width="1px">0.5</text><text x="0" y="81.6923076923077" dx="0em" dy="0.3em" style="text-anchor: end; visibility: inherit; font-family: Roboto, sans-serif; font-size: 12px; font-weight: 200;" fill="rgb(50, 49, 63)" stroke="none" stroke-width="1px">0.6</text><text x="0" y="68.0769230769231" dx="0em" dy="0.3em" style="text-anchor: end; visibility: hidden; font-family: Roboto, sans-serif; font-size: 12px; font-weight: 200;" fill="rgb(50, 49, 63)" stroke="none" stroke-width="1px">0.7</text><text x="0" y="54.46153846153847" dx="0em" dy="0.3em" style="text-anchor: end; visibility: inherit; font-family: Roboto, sans-serif; font-size: 12px; font-weight: 200;" fill="rgb(50, 49, 63)" stroke="none" stroke-width="1px">0.8</text><text x="0" y="40.84615384615386" dx="0em" dy="0.3em" style="text-anchor: end; visibility: hidden; font-family: Roboto, sans-serif; font-size: 12px; font-weight: 200;" fill="rgb(50, 49, 63)" stroke="none" stroke-width="1px">0.9</text><text x="0" y="27.230769230769234" dx="0em" dy="0.3em" style="text-anchor: end; visibility: inherit; font-family: Roboto, sans-serif; font-size: 12px; font-weight: 200;" fill="rgb(50, 49, 63)" stroke="none" stroke-width="1px">1</text><text x="0" y="13.615384615384606" dx="0em" dy="0.3em" style="text-anchor: end; visibility: hidden; font-family: Roboto, sans-serif; font-size: 12px; font-weight: 200;" fill="rgb(50, 49, 63)" stroke="none" stroke-width="1px">1.1</text><text x="0" y="0" dx="0em" dy="0.3em" style="text-anchor: end; visibility: hidden; font-family: Roboto, sans-serif; font-size: 12px; font-weight: 200;" fill="rgb(50, 49, 63)" stroke="none" stroke-width="1px">1.2</text></g><line x1="53.1875" y1="0" x2="53.1875" y2="177" fill="rgb(0, 0, 0)" stroke="rgb(204, 204, 204)" stroke-width="1px"></line></g></g><g transform="translate(53, 0)" clip-path="url(#clip_0)"><clipPath id="clip_0"><rect width="276" height="177"></rect></clipPath><g><g><g><line x1="0" y1="0" x2="0" y2="177" fill="rgb(0, 0, 0)" stroke="rgb(60, 60, 60)" stroke-width="1px" opacity="0.25"></line><line x1="27.681250000000002" y1="0" x2="27.681250000000002" y2="177" fill="rgb(0, 0, 0)" stroke="rgb(60, 60, 60)" stroke-width="1px" opacity="0.25"></line><line x1="55.362500000000004" y1="0" x2="55.362500000000004" y2="177" fill="rgb(0, 0, 0)" stroke="rgb(60, 60, 60)" stroke-width="1px" opacity="0.25"></line><line x1="83.04375" y1="0" x2="83.04375" y2="177" fill="rgb(0, 0, 0)" stroke="rgb(60, 60, 60)" stroke-width="1px" opacity="0.25"></line><line x1="110.72500000000001" y1="0" x2="110.72500000000001" y2="177" fill="rgb(0, 0, 0)" stroke="rgb(60, 60, 60)" stroke-width="1px" opacity="0.25"></line><line x1="138.40625" y1="0" x2="138.40625" y2="177" fill="rgb(0, 0, 0)" stroke="rgb(60, 60, 60)" stroke-width="1px" opacity="0.25"></line><line x1="166.0875" y1="0" x2="166.0875" y2="177" fill="rgb(0, 0, 0)" stroke="rgb(60, 60, 60)" stroke-width="1px" opacity="0.25"></line><line x1="193.76874999999998" y1="0" x2="193.76874999999998" y2="177" fill="rgb(0, 0, 0)" stroke="rgb(60, 60, 60)" stroke-width="1px" opacity="0.25"></line><line x1="221.45000000000002" y1="0" x2="221.45000000000002" y2="177" fill="rgb(0, 0, 0)" stroke="rgb(60, 60, 60)" stroke-width="1px" opacity="0.25"></line><line x1="249.13125" y1="0" x2="249.13125" y2="177" fill="rgb(0, 0, 0)" stroke="rgb(60, 60, 60)" stroke-width="1px" opacity="0.25"></line><line x1="276.8125" y1="0" x2="276.8125" y2="177" fill="rgb(0, 0, 0)" stroke="rgb(60, 60, 60)" stroke-width="1px" opacity="0.25"></line></g><g><line x1="0" y1="177" x2="276.8125" y2="177" fill="rgb(0, 0, 0)" stroke="rgb(60, 60, 60)" stroke-width="1px" opacity="0.25"></line><line x1="0" y1="163.3846153846154" x2="276.8125" y2="163.3846153846154" fill="rgb(0, 0, 0)" stroke="rgb(60, 60, 60)" stroke-width="1px" opacity="0.25"></line><line x1="0" y1="149.76923076923077" x2="276.8125" y2="149.76923076923077" fill="rgb(0, 0, 0)" stroke="rgb(60, 60, 60)" stroke-width="1px" opacity="0.25"></line><line x1="0" y1="136.15384615384613" x2="276.8125" y2="136.15384615384613" fill="rgb(0, 0, 0)" stroke="rgb(60, 60, 60)" stroke-width="1px" opacity="0.25"></line><line x1="0" y1="122.53846153846153" x2="276.8125" y2="122.53846153846153" fill="rgb(0, 0, 0)" stroke="rgb(60, 60, 60)" stroke-width="1px" opacity="0.25"></line><line x1="0" y1="108.92307692307693" x2="276.8125" y2="108.92307692307693" fill="rgb(0, 0, 0)" stroke="rgb(60, 60, 60)" stroke-width="1px" opacity="0.25"></line><line x1="0" y1="95.30769230769232" x2="276.8125" y2="95.30769230769232" fill="rgb(0, 0, 0)" stroke="rgb(60, 60, 60)" stroke-width="1px" opacity="0.25"></line><line x1="0" y1="81.6923076923077" x2="276.8125" y2="81.6923076923077" fill="rgb(0, 0, 0)" stroke="rgb(60, 60, 60)" stroke-width="1px" opacity="0.25"></line><line x1="0" y1="68.0769230769231" x2="276.8125" y2="68.0769230769231" fill="rgb(0, 0, 0)" stroke="rgb(60, 60, 60)" stroke-width="1px" opacity="0.25"></line><line x1="0" y1="54.46153846153847" x2="276.8125" y2="54.46153846153847" fill="rgb(0, 0, 0)" stroke="rgb(60, 60, 60)" stroke-width="1px" opacity="0.25"></line><line x1="0" y1="40.84615384615386" x2="276.8125" y2="40.84615384615386" fill="rgb(0, 0, 0)" stroke="rgb(60, 60, 60)" stroke-width="1px" opacity="0.25"></line><line x1="0" y1="27.230769230769234" x2="276.8125" y2="27.230769230769234" fill="rgb(0, 0, 0)" stroke="rgb(60, 60, 60)" stroke-width="1px" opacity="0.25"></line><line x1="0" y1="13.615384615384606" x2="276.8125" y2="13.615384615384606" fill="rgb(0, 0, 0)" stroke="rgb(60, 60, 60)" stroke-width="1px" opacity="0.25"></line><line x1="0" y1="0" x2="276.8125" y2="0" fill="rgb(0, 0, 0)" stroke="rgb(60, 60, 60)" stroke-width="1px" opacity="0.25"></line></g></g></g><g><g><line x1="0" y1="163.3846153846154" x2="276.8125" y2="163.3846153846154" fill="rgb(0, 0, 0)" stroke="rgb(153, 153, 153)" stroke-width="1.5px"></line></g></g><g><g><line x1="27.681250000000002" y1="0" x2="27.681250000000002" y2="177" fill="rgb(0, 0, 0)" stroke="rgb(153, 153, 153)" stroke-width="1.5px"></line></g></g><g><g><g><g><g><path stroke="rgb(255, 112, 67)" stroke-width="2px" d="M28.234875,29.076657909613385L28.7885,30.5493801327852L29.342125,31.793278669637246L29.89575,33.14561645990045L30.449375,34.51916928507812L31.003,36.00941341789384L31.556625,37.643071753798935L32.11025,39.2979176868957L32.663875,40.9626792442141L33.2175,42.61812197650767L33.771125,44.428438636834734L34.32475,46.19944954308046L34.878375,47.82175629651929L35.432,49.48278188831859L35.985625,51.02229816101348L36.53925,52.53406418688743L37.092875,53.93455854718927L37.6465,55.36962279135298L38.200125,56.71184719180507L38.753750000000004,57.99293015547198L39.30737499999999,59.23193869255352L39.861,60.53067390893772L40.414625,61.81349146995617L40.96825,63.11766165325369L41.521875,64.4169987461434L42.0755,65.72329884071442L42.629125,67.0039677911958L43.18275,68.41075542267197L43.736375,69.78973973678842L44.29,71.1237616514981L44.843625,72.44835821118059L45.39725,73.84006554934332L45.950875,75.19746857104865L46.5045,76.56211511222766L47.058125000000004,77.86771999506725L47.611749999999994,79.18127833548026L48.165375,80.51449564679415L48.718999999999994,81.81992141336819L49.272625,83.07819729823896L49.82625,84.41906236457672L50.379875,85.73821472907507L50.9335,86.97540725125548L51.487125,88.26991092237738L52.04075,89.617434245099L52.594375,90.89008428892848L53.148,92.29593044672052L53.701625,93.74725900068456L54.255250000000004,95.29943174662291L54.808875,96.83638132585583L55.362500000000004,98.20749833798392L55.916125,99.59709589574082L56.46975,100.90820722379218L57.023374999999994,102.36153965719784L57.577,103.86157706511504L58.130624999999995,105.15002048598991L58.68425,106.44494744064052L59.237874999999995,107.7039341243331L59.7915,109.0855381170555L60.345125,110.41450014589107L60.89875,111.83617411091353L61.452375,113.0129408150671L62.006,114.12989498389162L62.559625000000004,115.36309781980569L63.11325,116.54613181217667L63.666875000000005,117.6572669338419L64.2205,118.65443962301677L64.774125,119.77014716006988L65.32775,120.91193025753579L65.88137499999999,122.00869119478824L66.435,123.06060605236031L66.988625,124.08265276360777L67.54225,125.09082817247622L68.09587499999999,126.09045356867152L68.6495,127.06244170236894L69.203125,128.03524284197186L69.75675,129.07254445013302L70.31037500000001,129.99892511410883L70.864,130.93114421723615L71.417625,131.7602933065058L71.97125,132.54383037919033L72.52487500000001,133.3463302583167L73.0785,134.09965880971092L73.632125,134.8142743951505L74.18575,135.68912302807448L74.73937500000001,136.47680891276377L75.293,137.20294396756827L75.846625,137.9343883784109L76.40025,138.7326334132113L76.95387500000001,139.52375234261683L77.50750000000001,140.32096465745425L78.06112499999999,141.07752372216495L78.61474999999999,141.88319933326753L79.168375,142.62727383505944L79.722,143.4030723730011L80.27562499999999,144.15722120115703L80.82925,144.90899433723968L81.382875,145.5902487458699L81.9365,146.22544666017416L82.49012499999999,146.8717970226862L83.04375,147.5269427719967L83.597375,148.13721865783438L84.151,148.73967181756586L84.704625,149.31550433795653L85.25825,149.91784008112919L85.811875,150.4734146842479L86.3655,151.04566307406495L86.919125,151.6388934396924L87.47275,152.20274824895253L88.026375,152.73198975415013L88.58,153.22260736446322L89.13362500000001,153.7112160110793L89.68725,154.14936203771452L90.240875,154.53873691223083L90.7945,154.92993493855286L91.34812500000001,155.3284836277337L91.90175,155.70691898531467L92.455375,156.06962690645355L93.009,156.3953739666575L93.56262500000001,156.69219310479548L94.11625000000001,156.9606688589607L94.669875,157.20440785114494L95.22349999999999,157.4404524261304L95.777125,157.68242611233606L96.33075,157.91796984336688L96.88437499999999,158.1528128982988L97.43799999999999,158.365416072966L97.991625,158.55485527772618L98.54525,158.74453272441986L99.09887499999999,158.90975411660833L99.6525,159.06296352494482L100.206125,159.20925505703843L100.75975,159.34642010775897L101.313375,159.47188201765374L101.867,159.60055028950342L102.420625,159.71674991661183L102.97425,159.8367518084234L103.527875,159.95027235269924L104.0815,160.05516520111144L104.635125,160.15641361983415L105.18875,160.2539425842594L105.742375,160.35084723284245L106.296,160.45478117571665L106.849625,160.5374841143916L107.40325,160.58710587759654L107.956875,160.6168789355195L108.51050000000001,160.6347427702733L109.064125,160.64546107112557L109.61775,160.65189205163693L110.17137500000001,160.65575063994376L110.72500000000001,160.65806579292783L111.278625,160.6594548847183L111.83225,160.66028833979257L112.38587500000001,160.66078841283712L112.9395,160.66108845666386L113.49312499999999,160.6612684829599L114.04674999999999,160.66137649873752L114.600375,160.6614413082041L115.154,160.66148019388405L115.707625,160.661503525292L116.26124999999999,160.6615175241368L116.814875,160.66152592344366L117.3685,160.6615309630278L117.922125,160.66153398677827L118.47574999999999,160.66153580102855L119.029375,160.6615368895787L119.583,160.66153754270883L120.136625,160.66153793458687L120.69025,160.6615381697137L121.243875,160.6615383107898L121.7975,160.66153839543549L122.351125,160.6615384462229L122.90475,160.6615384766953L123.458375,160.66153849497877L124.012,160.66153850594887L124.565625,160.6615385125309L125.11925000000001,160.66153851648014L125.672875,160.66153851884965L126.2265,160.6615385202714L126.780125,160.6615385211244L127.33375000000001,160.66153852163626L127.887375,160.66153852194333L128.441,160.6615385221276L128.994625,160.66153852223815L129.54825,160.66153852230448L130.101875,160.66153852234427L130.6555,160.66153852236815L131.209125,160.6615385223825L131.76274999999998,160.66153852239108L132.316375,160.66153852239626L132.87,160.66153852239933L133.423625,160.6615385224012L133.97725,160.6615385224023L134.530875,160.66153852240296L135.0845,160.6615385224034L135.638125,160.66153852240362L136.19174999999998,160.66153852240376L136.745375,160.66153852240384L137.299,160.6615385224039L137.852625,160.66153852240393L138.40625,160.66153852240396L138.959875,160.66153852240396L139.5135,160.66153852240396L140.067125,160.66153852240396L140.62075000000002,160.66153852240396L141.174375,160.66153852240396L141.728,160.66153852240396L142.281625,160.66153852240396L142.83525,160.66153852240396L143.388875,160.66153852240396L143.9425,160.66153852240396L144.496125,160.66153852240396L145.04975000000002,160.66153852240396L145.603375,160.66153852240396L146.157,160.66153852240396L146.710625,160.66153852240396L147.26425,160.66153852240396L147.81787500000002,160.66153852240396L148.3715,160.66153852240396L148.925125,160.66153852240396L149.47875000000002,160.66153852240396L150.032375,160.66153852240396L150.586,160.66153852240396L151.13962500000002,160.66153852240396L151.69325,160.66153852240396L152.24687500000002,160.66153852240396L152.8005,160.66153852240396L153.354125,160.66153852240396L153.90775000000002,160.66153852240396L154.461375,160.66153852240396L155.01500000000001,160.66153852240396L155.56862500000003,160.66153852240396L156.12224999999998,160.66153852240396L156.675875,160.66153852240396L157.22949999999997,160.66153852240396L157.78312499999998,160.66153852240396L158.33675,160.66153852240396L158.89037499999998,160.66153852240396L159.444,160.66153852240396L159.997625,160.66153852240396L160.55124999999998,160.66153852240396L161.104875,160.66153852240396L161.6585,160.66153852240396L162.212125,160.66153852240396L162.76575,160.66153852240396L163.31937499999998,160.66153852240396L163.873,160.66153852240396L164.426625,160.66153852240396L164.98024999999998,160.66153852240396L165.533875,160.66153852240396L166.0875,160.66153852240396L166.641125,160.66153852240396L167.19475,160.66153852240396L167.74837499999998,160.66153852240396L168.302,160.66153852240396L168.855625,160.66153852240396L169.40925,160.66153852240396L169.962875,160.66153852240396L170.5165,160.66153852240396L171.070125,160.66153852240396L171.62375,160.66153852240396L172.177375,160.66153852240396L172.731,160.66153852240396L173.284625,160.66153852240396L173.83825,160.66153852240396L174.391875,160.66153852240396L174.9455,160.66153852240396L175.499125,160.66153852240396L176.05275,160.66153852240396L176.606375,160.66153852240396L177.16,160.66153852240396L177.713625,160.66153852240396L178.26725000000002,160.66153852240396L178.820875,160.66153852240396L179.3745,160.66153852240396L179.928125,160.66153852240396L180.48175,160.66153852240396L181.03537500000002,160.66153852240396L181.589,160.66153852240396L182.142625,160.66153852240396L182.69625000000002,160.66153852240396L183.249875,160.66153852240396L183.8035,160.66153852240396L184.357125,160.66153852240396L184.91075,160.66153852240396L185.46437500000002,160.66153852240396L186.018,160.66153852240396L186.571625,160.66153852240396L187.12525000000002,160.66153852240396L187.678875,160.66153852240396L188.23250000000002,160.66153852240396L188.78612500000003,160.66153852240396L189.33975,160.66153852240396L189.89337500000002,160.66153852240396L190.44699999999997,160.66153852240396L191.00062499999999,160.66153852240396L191.55425,160.66153852240396L192.10787499999998,160.66153852240396L192.6615,160.66153852240396L193.215125,160.66153852240396L193.76874999999998,160.66153852240396L194.322375,160.66153852240396L194.87599999999998,160.66153852240396L195.429625,160.66153852240396L195.98325,160.66153852240396L196.53687499999998,160.66153852240396L197.0905,160.66153852240396L197.644125,160.66153852240396L198.19774999999998,160.66153852240396L198.751375,160.66153852240396L199.305,160.66153852240396L199.858625,160.66153852240396L200.41225,160.66153852240396L200.96587499999998,160.66153852240396L201.5195,160.66153852240396L202.073125,160.66153852240396L202.62675,160.66153852240396L203.180375,160.66153852240396L203.734,160.66153852240396L204.287625,160.66153852240396L204.84125,160.66153852240396L205.39487499999998,160.66153852240396L205.9485,160.66153852240396L206.502125,160.66153852240396L207.05575,160.66153852240396L207.609375,160.66153852240396L208.163,160.66153852240396L208.716625,160.66153852240396L209.27025,160.66153852240396L209.82387500000002,160.66153852240396L210.3775,160.66153852240396L210.931125,160.66153852240396L211.48475,160.66153852240396L212.038375,160.66153852240396L212.592,160.66153852240396L213.145625,160.66153852240396L213.69925,160.66153852240396L214.25287500000002,160.66153852240396L214.8065,160.66153852240396L215.360125,160.66153852240396L215.91375,160.66153852240396L216.467375,160.66153852240396L217.02100000000002,160.66153852240396L217.574625,160.66153852240396L218.12825,160.66153852240396L218.68187500000002,160.66153852240396L219.2355,160.66153852240396L219.789125,160.66153852240396L220.34275000000002,160.66153852240396L220.896375,160.66153852240396L221.45000000000002,160.66153852240396L222.003625,160.66153852240396L222.55725,160.66153852240396L223.11087500000002,160.66153852240396L223.6645,160.66153852240396L224.21812500000001,160.66153852240396L224.77175000000003,160.66153852240396L225.32537499999998,160.66153852240396L225.879,160.66153852240396L226.43262499999997,160.66153852240396L226.98624999999998,160.66153852240396L227.539875,160.66153852240396L228.09349999999998,160.66153852240396L228.647125,160.66153852240396L229.20075,160.66153852240396L229.75437499999998,160.66153852240396L230.308,160.66153852240396L230.861625,160.66153852240396L231.41525,160.66153852240396L231.968875,160.66153852240396L232.52249999999998,160.66153852240396L233.076125,160.66153852240396L233.62975,160.66153852240396L234.18337499999998,160.66153852240396L234.737,160.66153852240396L235.290625,160.66153852240396L235.84425,160.66153852240396L236.397875,160.66153852240396L236.95149999999998,160.66153852240396L237.505125,160.66153852240396L238.05875,160.66153852240396L238.612375,160.66153852240396L239.166,160.66153852240396L239.719625,160.66153852240396L240.27325,160.66153852240396L240.826875,160.66153852240396L241.3805,160.66153852240396L241.934125,160.66153852240396L242.48775,160.66153852240396L243.041375,160.66153852240396L243.595,160.66153852240396L244.148625,160.66153852240396L244.70225,160.66153852240396L245.255875,160.66153852240396L245.8095,160.66153852240396L246.363125,160.66153852240396L246.91675,160.66153852240396L247.47037500000002,160.66153852240396L248.024,160.66153852240396L248.577625,160.66153852240396L249.13125,160.66153852240396L249.684875,160.66153852240396L250.23850000000002,160.66153852240396L250.792125,160.66153852240396L251.34575,160.66153852240396L251.89937500000002,160.66153852240396L252.453,160.66153852240396" style="fill: none;" fill="none"></path></g></g></g></g><g opacity="0.2"><g><g><g><path stroke="rgb(255, 112, 67)" stroke-width="2px" d="M28.234875,29.076657909613385L28.7885,31.433013466688287L29.342125,32.98742126501523L29.89575,34.735965701249924L30.449375,36.312479853630066L31.003,38.07095754146576L31.556625,39.97922931267664L32.11025,41.71069894387172L32.663875,43.41787917797382L33.2175,45.07626150204585L33.771125,47.12749418845545L34.32475,48.846328139305115L34.878375,50.24991931365088L35.432,51.971066153966476L35.985625,53.3297629264685L36.53925,54.800647011170035L37.092875,56.034707445364745L37.6465,57.52185479494243L38.200125,58.72497931810527L38.753750000000004,59.91443750491511L39.30737499999999,61.09038354800299L39.861,62.47873399807857L40.414625,63.73769248448886L40.96825,65.07390147906085L41.521875,66.36599515034602L42.0755,67.68274341179774L42.629125,68.92496794003708L43.18275,70.52093471013583L43.736375,71.8582149377236L44.29,73.12479378626898L44.843625,74.43525261145373L45.39725,75.92762627968422L45.950875,77.23357294156001L46.5045,78.60908482624934L47.058125000000004,79.82612726321587L47.611749999999994,81.15161581222827L48.165375,82.5143215931379L48.718999999999994,83.77806005111107L49.272625,84.96561111853674L49.82625,86.43035995960236L50.379875,87.71694327317752L50.9335,88.83119603303763L51.487125,90.21166642812582L52.04075,91.6387192285978L52.594375,92.79905935434195L53.148,94.40469968318939L53.701625,95.92425183149486L54.255250000000004,97.6276908654433L54.808875,99.14180569465346L55.362500000000004,100.26417385614836L55.916125,101.68149223235937L56.46975,102.87487421585963L57.023374999999994,104.54153830729999L57.577,106.111633176987L58.130624999999995,107.08268561730019L58.68425,108.38733787261523L59.237874999999995,109.59241414987125L59.7915,111.15794410613867L60.345125,112.40794318914413L60.89875,113.96868505844704L61.452375,114.7780908712974L62.006,115.80532623712833L62.559625000000004,117.21290207367676L63.11325,118.32068280073312L63.666875000000005,119.32396961633975L64.2205,120.15019865677908L64.774125,121.44370846564955L65.32775,122.62460490373465L65.88137499999999,123.65383260066695L66.435,124.63847833871841L66.988625,125.61572283047897L67.54225,126.60309128577894L68.09587499999999,127.58989166296446L68.6495,128.52042390291507L69.203125,129.4944445513762L69.75675,130.62849686237482L70.31037500000001,131.3884961100725L70.864,132.32947287192712L71.417625,133.0040169404103L71.97125,133.71913598821715L72.52487500000001,134.55008007700627L73.0785,135.22965163680223L73.632125,135.88619777330985L74.18575,137.00139597746042L74.73937500000001,137.65833773979773L75.293,138.29214654977505L75.846625,139.03155499467482L76.40025,139.93000096541184L76.95387500000001,140.71043073672516L77.50750000000001,141.51678312971043L78.06112499999999,142.21236231923103L78.61474999999999,143.09171274992136L79.168375,143.74338558774727L79.722,144.5667701799136L80.27562499999999,145.28844444339092L80.82925,146.03665404136365L81.382875,146.6121303588152L81.9365,147.17824353163059L82.49012499999999,147.84132256645424L83.04375,148.5096613959624L83.597375,149.052632486591L84.151,149.6433515571631L84.704625,150.17925311854253L85.25825,150.82134369588817L85.811875,151.30677658892597L86.3655,151.90403565879052L86.919125,152.52873898813357L87.47275,153.0485304628427L88.026375,153.52585201194654L88.58,153.9585337799329L89.13362500000001,154.44412898100342L89.68725,154.80658107766737L90.240875,155.1227992240053L90.7945,155.5167319780359L91.34812500000001,155.92630666150498L91.90175,156.2745720216861L92.455375,156.61368878816182L93.009,156.88399455696344L93.56262500000001,157.1374218120025L94.11625000000001,157.36338249020852L94.669875,157.57001633942127L95.22349999999999,157.79451928860865L95.777125,158.0453866416445L96.33075,158.2712854399131L96.88437499999999,158.5050774806967L97.43799999999999,158.6843208349668L97.991625,158.83901408486642L98.54525,159.02904889446037L99.09887499999999,159.15758620489103L99.6525,159.2927776374496L100.206125,159.42869235517887L100.75975,159.5521676838398L101.313375,159.66007488249588L101.867,159.793552697278L102.420625,159.8910493572744L102.97425,160.0167546461408L103.527875,160.12055316911292L104.0815,160.21250447372978L104.635125,160.30828624791823L105.18875,160.40023603089728L105.742375,160.49620420571702L106.296,160.61068209002798L106.849625,160.66153852240396L107.40325,160.66153852240396L107.956875,160.66153852240396L108.51050000000001,160.66153852240396L109.064125,160.66153852240396L109.61775,160.66153852240396L110.17137500000001,160.66153852240396L110.72500000000001,160.66153852240396L111.278625,160.66153852240396L111.83225,160.66153852240396L112.38587500000001,160.66153852240396L112.9395,160.66153852240396L113.49312499999999,160.66153852240396L114.04674999999999,160.66153852240396L114.600375,160.66153852240396L115.154,160.66153852240396L115.707625,160.66153852240396L116.26124999999999,160.66153852240396L116.814875,160.66153852240396L117.3685,160.66153852240396L117.922125,160.66153852240396L118.47574999999999,160.66153852240396L119.029375,160.66153852240396L119.583,160.66153852240396L120.136625,160.66153852240396L120.69025,160.66153852240396L121.243875,160.66153852240396L121.7975,160.66153852240396L122.351125,160.66153852240396L122.90475,160.66153852240396L123.458375,160.66153852240396L124.012,160.66153852240396L124.565625,160.66153852240396L125.11925000000001,160.66153852240396L125.672875,160.66153852240396L126.2265,160.66153852240396L126.780125,160.66153852240396L127.33375000000001,160.66153852240396L127.887375,160.66153852240396L128.441,160.66153852240396L128.994625,160.66153852240396L129.54825,160.66153852240396L130.101875,160.66153852240396L130.6555,160.66153852240396L131.209125,160.66153852240396L131.76274999999998,160.66153852240396L132.316375,160.66153852240396L132.87,160.66153852240396L133.423625,160.66153852240396L133.97725,160.66153852240396L134.530875,160.66153852240396L135.0845,160.66153852240396L135.638125,160.66153852240396L136.19174999999998,160.66153852240396L136.745375,160.66153852240396L137.299,160.66153852240396L137.852625,160.66153852240396L138.40625,160.66153852240396L138.959875,160.66153852240396L139.5135,160.66153852240396L140.067125,160.66153852240396L140.62075000000002,160.66153852240396L141.174375,160.66153852240396L141.728,160.66153852240396L142.281625,160.66153852240396L142.83525,160.66153852240396L143.388875,160.66153852240396L143.9425,160.66153852240396L144.496125,160.66153852240396L145.04975000000002,160.66153852240396L145.603375,160.66153852240396L146.157,160.66153852240396L146.710625,160.66153852240396L147.26425,160.66153852240396L147.81787500000002,160.66153852240396L148.3715,160.66153852240396L148.925125,160.66153852240396L149.47875000000002,160.66153852240396L150.032375,160.66153852240396L150.586,160.66153852240396L151.13962500000002,160.66153852240396L151.69325,160.66153852240396L152.24687500000002,160.66153852240396L152.8005,160.66153852240396L153.354125,160.66153852240396L153.90775000000002,160.66153852240396L154.461375,160.66153852240396L155.01500000000001,160.66153852240396L155.56862500000003,160.66153852240396L156.12224999999998,160.66153852240396L156.675875,160.66153852240396L157.22949999999997,160.66153852240396L157.78312499999998,160.66153852240396L158.33675,160.66153852240396L158.89037499999998,160.66153852240396L159.444,160.66153852240396L159.997625,160.66153852240396L160.55124999999998,160.66153852240396L161.104875,160.66153852240396L161.6585,160.66153852240396L162.212125,160.66153852240396L162.76575,160.66153852240396L163.31937499999998,160.66153852240396L163.873,160.66153852240396L164.426625,160.66153852240396L164.98024999999998,160.66153852240396L165.533875,160.66153852240396L166.0875,160.66153852240396L166.641125,160.66153852240396L167.19475,160.66153852240396L167.74837499999998,160.66153852240396L168.302,160.66153852240396L168.855625,160.66153852240396L169.40925,160.66153852240396L169.962875,160.66153852240396L170.5165,160.66153852240396L171.070125,160.66153852240396L171.62375,160.66153852240396L172.177375,160.66153852240396L172.731,160.66153852240396L173.284625,160.66153852240396L173.83825,160.66153852240396L174.391875,160.66153852240396L174.9455,160.66153852240396L175.499125,160.66153852240396L176.05275,160.66153852240396L176.606375,160.66153852240396L177.16,160.66153852240396L177.713625,160.66153852240396L178.26725000000002,160.66153852240396L178.820875,160.66153852240396L179.3745,160.66153852240396L179.928125,160.66153852240396L180.48175,160.66153852240396L181.03537500000002,160.66153852240396L181.589,160.66153852240396L182.142625,160.66153852240396L182.69625000000002,160.66153852240396L183.249875,160.66153852240396L183.8035,160.66153852240396L184.357125,160.66153852240396L184.91075,160.66153852240396L185.46437500000002,160.66153852240396L186.018,160.66153852240396L186.571625,160.66153852240396L187.12525000000002,160.66153852240396L187.678875,160.66153852240396L188.23250000000002,160.66153852240396L188.78612500000003,160.66153852240396L189.33975,160.66153852240396L189.89337500000002,160.66153852240396L190.44699999999997,160.66153852240396L191.00062499999999,160.66153852240396L191.55425,160.66153852240396L192.10787499999998,160.66153852240396L192.6615,160.66153852240396L193.215125,160.66153852240396L193.76874999999998,160.66153852240396L194.322375,160.66153852240396L194.87599999999998,160.66153852240396L195.429625,160.66153852240396L195.98325,160.66153852240396L196.53687499999998,160.66153852240396L197.0905,160.66153852240396L197.644125,160.66153852240396L198.19774999999998,160.66153852240396L198.751375,160.66153852240396L199.305,160.66153852240396L199.858625,160.66153852240396L200.41225,160.66153852240396L200.96587499999998,160.66153852240396L201.5195,160.66153852240396L202.073125,160.66153852240396L202.62675,160.66153852240396L203.180375,160.66153852240396L203.734,160.66153852240396L204.287625,160.66153852240396L204.84125,160.66153852240396L205.39487499999998,160.66153852240396L205.9485,160.66153852240396L206.502125,160.66153852240396L207.05575,160.66153852240396L207.609375,160.66153852240396L208.163,160.66153852240396L208.716625,160.66153852240396L209.27025,160.66153852240396L209.82387500000002,160.66153852240396L210.3775,160.66153852240396L210.931125,160.66153852240396L211.48475,160.66153852240396L212.038375,160.66153852240396L212.592,160.66153852240396L213.145625,160.66153852240396L213.69925,160.66153852240396L214.25287500000002,160.66153852240396L214.8065,160.66153852240396L215.360125,160.66153852240396L215.91375,160.66153852240396L216.467375,160.66153852240396L217.02100000000002,160.66153852240396L217.574625,160.66153852240396L218.12825,160.66153852240396L218.68187500000002,160.66153852240396L219.2355,160.66153852240396L219.789125,160.66153852240396L220.34275000000002,160.66153852240396L220.896375,160.66153852240396L221.45000000000002,160.66153852240396L222.003625,160.66153852240396L222.55725,160.66153852240396L223.11087500000002,160.66153852240396L223.6645,160.66153852240396L224.21812500000001,160.66153852240396L224.77175000000003,160.66153852240396L225.32537499999998,160.66153852240396L225.879,160.66153852240396L226.43262499999997,160.66153852240396L226.98624999999998,160.66153852240396L227.539875,160.66153852240396L228.09349999999998,160.66153852240396L228.647125,160.66153852240396L229.20075,160.66153852240396L229.75437499999998,160.66153852240396L230.308,160.66153852240396L230.861625,160.66153852240396L231.41525,160.66153852240396L231.968875,160.66153852240396L232.52249999999998,160.66153852240396L233.076125,160.66153852240396L233.62975,160.66153852240396L234.18337499999998,160.66153852240396L234.737,160.66153852240396L235.290625,160.66153852240396L235.84425,160.66153852240396L236.397875,160.66153852240396L236.95149999999998,160.66153852240396L237.505125,160.66153852240396L238.05875,160.66153852240396L238.612375,160.66153852240396L239.166,160.66153852240396L239.719625,160.66153852240396L240.27325,160.66153852240396L240.826875,160.66153852240396L241.3805,160.66153852240396L241.934125,160.66153852240396L242.48775,160.66153852240396L243.041375,160.66153852240396L243.595,160.66153852240396L244.148625,160.66153852240396L244.70225,160.66153852240396L245.255875,160.66153852240396L245.8095,160.66153852240396L246.363125,160.66153852240396L246.91675,160.66153852240396L247.47037500000002,160.66153852240396L248.024,160.66153852240396L248.577625,160.66153852240396L249.13125,160.66153852240396L249.684875,160.66153852240396L250.23850000000002,160.66153852240396L250.792125,160.66153852240396L251.34575,160.66153852240396L251.89937500000002,160.66153852240396L252.453,160.66153852240396" style="fill: none;" fill="none"></path></g></g></g></g></g><g><g><span fill="rgb(0, 0, 0)" stroke="none" stroke-width="1px">Alt + Scroll to Zoom</span></g></g></g><g transform="translate(53, 177)" clip-path="url(#clip_1)"><clipPath id="clip_1"><rect width="276" height="23"></rect></clipPath><g><g><line x1="0" y1="0" x2="0" y2="5" style="visibility: inherit;" fill="rgb(0, 0, 0)" stroke="rgb(204, 204, 204)" stroke-width="1px"></line><line x1="27.681250000000002" y1="0" x2="27.681250000000002" y2="5" style="visibility: inherit;" fill="rgb(0, 0, 0)" stroke="rgb(204, 204, 204)" stroke-width="1px"></line><line x1="55.362500000000004" y1="0" x2="55.362500000000004" y2="5" style="visibility: inherit;" fill="rgb(0, 0, 0)" stroke="rgb(204, 204, 204)" stroke-width="1px"></line><line x1="83.04375" y1="0" x2="83.04375" y2="5" style="visibility: inherit;" fill="rgb(0, 0, 0)" stroke="rgb(204, 204, 204)" stroke-width="1px"></line><line x1="110.72500000000001" y1="0" x2="110.72500000000001" y2="5" style="visibility: inherit;" fill="rgb(0, 0, 0)" stroke="rgb(204, 204, 204)" stroke-width="1px"></line><line x1="138.40625" y1="0" x2="138.40625" y2="5" style="visibility: inherit;" fill="rgb(0, 0, 0)" stroke="rgb(204, 204, 204)" stroke-width="1px"></line><line x1="166.0875" y1="0" x2="166.0875" y2="5" style="visibility: inherit;" fill="rgb(0, 0, 0)" stroke="rgb(204, 204, 204)" stroke-width="1px"></line><line x1="193.76874999999998" y1="0" x2="193.76874999999998" y2="5" style="visibility: inherit;" fill="rgb(0, 0, 0)" stroke="rgb(204, 204, 204)" stroke-width="1px"></line><line x1="221.45000000000002" y1="0" x2="221.45000000000002" y2="5" style="visibility: inherit;" fill="rgb(0, 0, 0)" stroke="rgb(204, 204, 204)" stroke-width="1px"></line><line x1="249.13125" y1="0" x2="249.13125" y2="5" style="visibility: inherit;" fill="rgb(0, 0, 0)" stroke="rgb(204, 204, 204)" stroke-width="1px"></line><line x1="276.8125" y1="0" x2="276.8125" y2="5" style="visibility: inherit;" fill="rgb(0, 0, 0)" stroke="rgb(204, 204, 204)" stroke-width="1px"></line></g><g transform="translate(0, 8)"><text x="0" y="0" dx="0em" dy="0.95em" style="text-anchor: middle; visibility: hidden; font-family: Roboto, sans-serif; font-size: 12px; font-weight: 200;" fill="rgb(50, 49, 63)" stroke="none" stroke-width="1px">-50</text><text x="27.681250000000002" y="0" dx="0em" dy="0.95em" style="text-anchor: middle; visibility: inherit; font-family: Roboto, sans-serif; font-size: 12px; font-weight: 200;" fill="rgb(50, 49, 63)" stroke="none" stroke-width="1px">0</text><text x="55.362500000000004" y="0" dx="0em" dy="0.95em" style="text-anchor: middle; visibility: inherit; font-family: Roboto, sans-serif; font-size: 12px; font-weight: 200;" fill="rgb(50, 49, 63)" stroke="none" stroke-width="1px">50</text><text x="83.04375" y="0" dx="0em" dy="0.95em" style="text-anchor: middle; visibility: inherit; font-family: Roboto, sans-serif; font-size: 12px; font-weight: 200;" fill="rgb(50, 49, 63)" stroke="none" stroke-width="1px">100</text><text x="110.72500000000001" y="0" dx="0em" dy="0.95em" style="text-anchor: middle; visibility: inherit; font-family: Roboto, sans-serif; font-size: 12px; font-weight: 200;" fill="rgb(50, 49, 63)" stroke="none" stroke-width="1px">150</text><text x="138.40625" y="0" dx="0em" dy="0.95em" style="text-anchor: middle; visibility: inherit; font-family: Roboto, sans-serif; font-size: 12px; font-weight: 200;" fill="rgb(50, 49, 63)" stroke="none" stroke-width="1px">200</text><text x="166.0875" y="0" dx="0em" dy="0.95em" style="text-anchor: middle; visibility: inherit; font-family: Roboto, sans-serif; font-size: 12px; font-weight: 200;" fill="rgb(50, 49, 63)" stroke="none" stroke-width="1px">250</text><text x="193.76874999999998" y="0" dx="0em" dy="0.95em" style="text-anchor: middle; visibility: inherit; font-family: Roboto, sans-serif; font-size: 12px; font-weight: 200;" fill="rgb(50, 49, 63)" stroke="none" stroke-width="1px">300</text><text x="221.45000000000002" y="0" dx="0em" dy="0.95em" style="text-anchor: middle; visibility: inherit; font-family: Roboto, sans-serif; font-size: 12px; font-weight: 200;" fill="rgb(50, 49, 63)" stroke="none" stroke-width="1px">350</text><text x="249.13125" y="0" dx="0em" dy="0.95em" style="text-anchor: middle; visibility: inherit; font-family: Roboto, sans-serif; font-size: 12px; font-weight: 200;" fill="rgb(50, 49, 63)" stroke="none" stroke-width="1px">400</text><text x="276.8125" y="0" dx="0em" dy="0.95em" style="text-anchor: middle; visibility: hidden; font-family: Roboto, sans-serif; font-size: 12px; font-weight: 200;" fill="rgb(50, 49, 63)" stroke="none" stroke-width="1px">450</text></g><line x1="0" y1="0" x2="276.8125" y2="0" fill="rgb(0, 0, 0)" stroke="rgb(204, 204, 204)" stroke-width="1px"></line></g></g></g></g></svg>