<svg viewBox="0 0 330 200" xmlns="http://www.w3.org/2000/svg"><g><g><g><g><g><line x1="41.171875" y1="178" x2="36.171875" y2="178" style="visibility: inherit;" fill="rgb(0, 0, 0)" stroke="rgb(204, 204, 204)" stroke-width="1px"></line><line x1="41.171875" y1="163.16666666666666" x2="36.171875" y2="163.16666666666666" style="visibility: inherit;" fill="rgb(0, 0, 0)" stroke="rgb(204, 204, 204)" stroke-width="1px"></line><line x1="41.171875" y1="148.33333333333334" x2="36.171875" y2="148.33333333333334" style="visibility: inherit;" fill="rgb(0, 0, 0)" stroke="rgb(204, 204, 204)" stroke-width="1px"></line><line x1="41.171875" y1="133.5" x2="36.171875" y2="133.5" style="visibility: inherit;" fill="rgb(0, 0, 0)" stroke="rgb(204, 204, 204)" stroke-width="1px"></line><line x1="41.171875" y1="118.66666666666669" x2="36.171875" y2="118.66666666666669" style="visibility: inherit;" fill="rgb(0, 0, 0)" stroke="rgb(204, 204, 204)" stroke-width="1px"></line><line x1="41.171875" y1="103.83333333333331" x2="36.171875" y2="103.83333333333331" style="visibility: inherit;" fill="rgb(0, 0, 0)" stroke="rgb(204, 204, 204)" stroke-width="1px"></line><line x1="41.171875" y1="89" x2="36.171875" y2="89" style="visibility: inherit;" fill="rgb(0, 0, 0)" stroke="rgb(204, 204, 204)" stroke-width="1px"></line><line x1="41.171875" y1="74.16666666666666" x2="36.171875" y2="74.16666666666666" style="visibility: inherit;" fill="rgb(0, 0, 0)" stroke="rgb(204, 204, 204)" stroke-width="1px"></line><line x1="41.171875" y1="59.33333333333334" x2="36.171875" y2="59.33333333333334" style="visibility: inherit;" fill="rgb(0, 0, 0)" stroke="rgb(204, 204, 204)" stroke-width="1px"></line><line x1="41.171875" y1="44.5" x2="36.171875" y2="44.5" style="visibility: inherit;" fill="rgb(0, 0, 0)" stroke="rgb(204, 204, 204)" stroke-width="1px"></line><line x1="41.171875" y1="29.66666666666666" x2="36.171875" y2="29.66666666666666" style="visibility: inherit;" fill="rgb(0, 0, 0)" stroke="rgb(204, 204, 204)" stroke-width="1px"></line><line x1="41.171875" y1="14.83333333333334" x2="36.171875" y2="14.83333333333334" style="visibility: inherit;" fill="rgb(0, 0, 0)" stroke="rgb(204, 204, 204)" stroke-width="1px"></line><line x1="41.171875" y1="0" x2="36.171875" y2="0" style="visibility: inherit;" fill="rgb(0, 0, 0)" stroke="rgb(204, 204, 204)" stroke-width="1px"></line></g><g transform="translate(31.171875, 0)"><text x="0" y="178" dx="0em" dy="0.3em" style="text-anchor: end; visibility: hidden; font-family: Roboto, sans-serif; font-size: 12px; font-weight: 200;" fill="rgb(50, 49, 63)" stroke="none" stroke-width="1px">-30</text><text x="0" y="163.16666666666666" dx="0em" dy="0.3em" style="text-anchor: end; visibility: inherit; font-family: Roboto, sans-serif; font-size: 12px; font-weight: 200;" fill="rgb(50, 49, 63)" stroke="none" stroke-width="1px">-25</text><text x="0" y="148.33333333333334" dx="0em" dy="0.3em" style="text-anchor: end; visibility: hidden; font-family: Roboto, sans-serif; font-size: 12px; font-weight: 200;" fill="rgb(50, 49, 63)" stroke="none" stroke-width="1px">-20</text><text x="0" y="133.5" dx="0em" dy="0.3em" style="text-anchor: end; visibility: inherit; font-family: Roboto, sans-serif; font-size: 12px; font-weight: 200;" fill="rgb(50, 49, 63)" stroke="none" stroke-width="1px">-15</text><text x="0" y="118.66666666666669" dx="0em" dy="0.3em" style="text-anchor: end; visibility: hidden; font-family: Roboto, sans-serif; font-size: 12px; font-weight: 200;" fill="rgb(50, 49, 63)" stroke="none" stroke-width="1px">-10</text><text x="0" y="103.83333333333331" dx="0em" dy="0.3em" style="text-anchor: end; visibility: inherit; font-family: Roboto, sans-serif; font-size: 12px; font-weight: 200;" fill="rgb(50, 49, 63)" stroke="none" stroke-width="1px">-5</text><text x="0" y="89" dx="0em" dy="0.3em" style="text-anchor: end; visibility: hidden; font-family: Roboto, sans-serif; font-size: 12px; font-weight: 200;" fill="rgb(50, 49, 63)" stroke="none" stroke-width="1px">0</text><text x="0" y="74.16666666666666" dx="0em" dy="0.3em" style="text-anchor: end; visibility: inherit; font-family: Roboto, sans-serif; font-size: 12px; font-weight: 200;" fill="rgb(50, 49, 63)" stroke="none" stroke-width="1px">5</text><text x="0" y="59.33333333333334" dx="0em" dy="0.3em" style="text-anchor: end; visibility: hidden; font-family: Roboto, sans-serif; font-size: 12px; font-weight: 200;" fill="rgb(50, 49, 63)" stroke="none" stroke-width="1px">10</text><text x="0" y="44.5" dx="0em" dy="0.3em" style="text-anchor: end; visibility: inherit; font-family: Roboto, sans-serif; font-size: 12px; font-weight: 200;" fill="rgb(50, 49, 63)" stroke="none" stroke-width="1px">15</text><text x="0" y="29.66666666666666" dx="0em" dy="0.3em" style="text-anchor: end; visibility: hidden; font-family: Roboto, sans-serif; font-size: 12px; font-weight: 200;" fill="rgb(50, 49, 63)" stroke="none" stroke-width="1px">20</text><text x="0" y="14.83333333333334" dx="0em" dy="0.3em" style="text-anchor: end; visibility: inherit; font-family: Roboto, sans-serif; font-size: 12px; font-weight: 200;" fill="rgb(50, 49, 63)" stroke="none" stroke-width="1px">25</text><text x="0" y="0" dx="0em" dy="0.3em" style="text-anchor: end; visibility: hidden; font-family: Roboto, sans-serif; font-size: 12px; font-weight: 200;" fill="rgb(50, 49, 63)" stroke="none" stroke-width="1px">30</text></g><line x1="41.171875" y1="0" x2="41.171875" y2="178" fill="rgb(0, 0, 0)" stroke="rgb(204, 204, 204)" stroke-width="1px"></line></g></g><g transform="translate(41, 0)" clip-path="url(#clip_0)"><clipPath id="clip_0"><rect width="288" height="178"></rect></clipPath><g><g><g><line x1="0" y1="0" x2="0" y2="178" fill="rgb(0, 0, 0)" stroke="rgb(60, 60, 60)" stroke-width="1px" opacity="0.25"></line><line x1="28.8828125" y1="0" x2="28.8828125" y2="178" fill="rgb(0, 0, 0)" stroke="rgb(60, 60, 60)" stroke-width="1px" opacity="0.25"></line><line x1="57.765625" y1="0" x2="57.765625" y2="178" fill="rgb(0, 0, 0)" stroke="rgb(60, 60, 60)" stroke-width="1px" opacity="0.25"></line><line x1="86.6484375" y1="0" x2="86.6484375" y2="178" fill="rgb(0, 0, 0)" stroke="rgb(60, 60, 60)" stroke-width="1px" opacity="0.25"></line><line x1="115.53125" y1="0" x2="115.53125" y2="178" fill="rgb(0, 0, 0)" stroke="rgb(60, 60, 60)" stroke-width="1px" opacity="0.25"></line><line x1="144.4140625" y1="0" x2="144.4140625" y2="178" fill="rgb(0, 0, 0)" stroke="rgb(60, 60, 60)" stroke-width="1px" opacity="0.25"></line><line x1="173.296875" y1="0" x2="173.296875" y2="178" fill="rgb(0, 0, 0)" stroke="rgb(60, 60, 60)" stroke-width="1px" opacity="0.25"></line><line x1="202.1796875" y1="0" x2="202.1796875" y2="178" fill="rgb(0, 0, 0)" stroke="rgb(60, 60, 60)" stroke-width="1px" opacity="0.25"></line><line x1="231.0625" y1="0" x2="231.0625" y2="178" fill="rgb(0, 0, 0)" stroke="rgb(60, 60, 60)" stroke-width="1px" opacity="0.25"></line><line x1="259.9453125" y1="0" x2="259.9453125" y2="178" fill="rgb(0, 0, 0)" stroke="rgb(60, 60, 60)" stroke-width="1px" opacity="0.25"></line><line x1="288.828125" y1="0" x2="288.828125" y2="178" fill="rgb(0, 0, 0)" stroke="rgb(60, 60, 60)" stroke-width="1px" opacity="0.25"></line></g><g><line x1="0" y1="178" x2="288.828125" y2="178" fill="rgb(0, 0, 0)" stroke="rgb(60, 60, 60)" stroke-width="1px" opacity="0.25"></line><line x1="0" y1="163.16666666666666" x2="288.828125" y2="163.16666666666666" fill="rgb(0, 0, 0)" stroke="rgb(60, 60, 60)" stroke-width="1px" opacity="0.25"></line><line x1="0" y1="148.33333333333334" x2="288.828125" y2="148.33333333333334" fill="rgb(0, 0, 0)" stroke="rgb(60, 60, 60)" stroke-width="1px" opacity="0.25"></line><line x1="0" y1="133.5" x2="288.828125" y2="133.5" fill="rgb(0, 0, 0)" stroke="rgb(60, 60, 60)" stroke-width="1px" opacity="0.25"></line><line x1="0" y1="118.66666666666669" x2="288.828125" y2="118.66666666666669" fill="rgb(0, 0, 0)" stroke="rgb(60, 60, 60)" stroke-width="1px" opacity="0.25"></line><line x1="0" y1="103.83333333333331" x2="288.828125" y2="103.83333333333331" fill="rgb(0, 0, 0)" stroke="rgb(60, 60, 60)" stroke-width="1px" opacity="0.25"></line><line x1="0" y1="89" x2="288.828125" y2="89" fill="rgb(0, 0, 0)" stroke="rgb(60, 60, 60)" stroke-width="1px" opacity="0.25"></line><line x1="0" y1="74.16666666666666" x2="288.828125" y2="74.16666666666666" fill="rgb(0, 0, 0)" stroke="rgb(60, 60, 60)" stroke-width="1px" opacity="0.25"></line><line x1="0" y1="59.33333333333334" x2="288.828125" y2="59.33333333333334" fill="rgb(0, 0, 0)" stroke="rgb(60, 60, 60)" stroke-width="1px" opacity="0.25"></line><line x1="0" y1="44.5" x2="288.828125" y2="44.5" fill="rgb(0, 0, 0)" stroke="rgb(60, 60, 60)" stroke-width="1px" opacity="0.25"></line><line x1="0" y1="29.66666666666666" x2="288.828125" y2="29.66666666666666" fill="rgb(0, 0, 0)" stroke="rgb(60, 60, 60)" stroke-width="1px" opacity="0.25"></line><line x1="0" y1="14.83333333333334" x2="288.828125" y2="14.83333333333334" fill="rgb(0, 0, 0)" stroke="rgb(60, 60, 60)" stroke-width="1px" opacity="0.25"></line><line x1="0" y1="0" x2="288.828125" y2="0" fill="rgb(0, 0, 0)" stroke="rgb(60, 60, 60)" stroke-width="1px" opacity="0.25"></line></g></g></g><g><g><line x1="0" y1="89" x2="288.828125" y2="89" fill="rgb(0, 0, 0)" stroke="rgb(153, 153, 153)" stroke-width="1.5px"></line></g></g><g><g><line x1="28.8828125" y1="0" x2="28.8828125" y2="178" fill="rgb(0, 0, 0)" stroke="rgb(153, 153, 153)" stroke-width="1.5px"></line></g></g><g><g><g><g><g><path stroke="rgb(255, 112, 67)" stroke-width="2px" d="M29.460468749999997,151.29999999999998L30.038124999999997,148.51874999999998L30.615781249999998,148.42414965986396L31.193437499999998,148.38241421568628L31.77109375,148.61847195092543L32.34875,148.70629080359413L32.92640625,148.55281137372174L33.5040625,148.61438773735551L34.08171875,148.76720875728176L34.659375,148.83138085049882L35.23703125,148.73970907783126L35.8146875,148.57680417150956L36.39234375,148.57069025052942L36.97,148.5605010804139L37.54765625,148.62788773710554L38.1253125,148.65840791900877L38.702968750000004,148.73780235628757L39.280625,148.83972779640308L39.858281250000005,148.94945847160582L40.4359375,149.0590115163749L41.01359375,149.1642988628595L41.591249999999995,149.26342869580301L42.16890625,149.35573871226967L42.746562499999996,149.391776731457L43.32421875,149.4430657320129L43.901875,149.501223805586L44.47953125,149.56147533724666L45.0571875,149.49402866475427L45.63484375,149.47986578168752L46.2125,149.49591901988407L46.79015625,149.451960738375L47.3678125,149.37534310359393L47.94546875,149.354095504493L48.523125,149.25990801410853L49.100781250000004,149.19442119182014L49.678437499999994,149.11368874534662L50.25609375,149.02605194092018L50.833749999999995,148.96756015501688L51.41140625,148.95728764938372L51.989062499999996,148.91537168421937L52.56671875,148.8562147147892L53.144375,148.84483918551683L53.72203125,148.86101214372036L54.2996875,148.83872746953728L54.87734375,148.7947918863809L55.455,148.7133962805051L56.03265625,148.61186726659028L56.6103125,148.45101000330177L57.18796875,148.30706863320472L57.765625,148.22264127045764L58.343281250000004,148.150577738145L58.920937499999994,148.04111517722913L59.49859375,147.8893225538063L60.076249999999995,147.73729623003751L60.65390625,147.67365075336264L61.231562499999995,147.61966728917577L61.80921875,147.61367283037396L62.386874999999996,147.5332613255844L62.96453125,147.47114212351633L63.5421875,147.3611298694467L64.11984375,147.3220341889613L64.6975,147.30547784776806L65.27515625,147.24572010404657L65.8528125,147.21722372909463L66.43046875,147.20725783669994L67.008125,147.1902126020037L67.58578125000001,147.15154147620058L68.1634375,147.08327702805434L68.74109374999999,147.01576430236318L69.31875,146.9494585814179L69.89640625,146.91803157381818L70.4740625,146.84137525430884L71.05171874999999,146.80418603820542L71.629375,146.77440333129726L72.20703125,146.7017982182608L72.7846875,146.57371122465764L73.36234375000001,146.49158533668262L73.94,146.39153297894643L74.51765625,146.34209195228485L75.0953125,146.2634227433924L75.67296875000001,146.2123757234687L76.250625,146.16352271903403L76.82828125,146.14502085289666L77.40593750000001,146.07383812412405L77.98359375000001,146.0143432085402L78.56125,145.98984549828492L79.13890625,145.94517057411744L79.71656250000001,145.8486170844607L80.29421875000001,145.74916994550065L80.871875,145.58298440443417L81.44953124999999,145.44429529150491L82.0271875,145.3229550689866L82.60484374999999,145.20008028728225L83.18249999999999,145.05210500627234L83.76015625,144.92810606203165L84.3378125,144.72033661390356L84.91546875,144.51398930659897L85.49312499999999,144.37070674008731L86.07078125,144.18175082627894L86.6484375,143.99118446284908L87.22609375,143.7819114019933L87.80375,143.53768044613577L88.38140625,143.26060781500405L88.9590625,142.91636468900245L89.53671875,142.57928475578427L90.114375,142.2346380633501L90.69203125,141.79051580920148L91.2696875,141.31044209457036L91.84734375000001,140.832531380196L92.425,140.34405152770256L93.00265625,139.81363164090538L93.5803125,139.31737789811746L94.15796875000001,138.6398926812533L94.735625,138.0435350655391L95.31328125,137.47212013396862L95.8909375,136.8326056400532L96.46859375000001,136.1403633387642L97.04625,135.4046185464714L97.62390625,134.5597048233581L98.20156250000001,133.6730224866052L98.77921875000001,132.72568043023622L99.35687499999999,131.730074472131L99.93453124999999,130.77671180262269L100.5121875,129.82496009803273L101.08984375,128.96910934688526L101.66749999999999,128.0283993036064L102.24515625,127.03677255335525L102.8228125,126.10953015341207L103.40046875,125.1022512443096L103.97812499999999,124.08255124453092L104.55578125,123.10286408005187L105.1334375,122.09971799535373L105.71109375,121.02316413054557L106.28875,120.00936464704887L106.86640625,118.9382856812347L107.4440625,117.88030451573543L108.02171875,116.84204896869826L108.599375,115.74442942648669L109.17703125,114.63492423202321L109.7546875,113.5538878951811L110.33234375,112.46619956221244L110.91,111.39825334226724L111.48765625,110.36588513498883L112.0653125,109.35486430115729L112.64296875000001,108.34478551896748L113.220625,107.33527140191597L113.79828125,106.45662957571787L114.3759375,105.59717756435974L114.95359375000001,104.67804007565402L115.53125,103.7349571071193L116.10890625,102.81310766550652L116.68656250000001,101.83279784210175L117.26421875000001,100.99541190279116L117.84187499999999,100.10138042974029L118.41953124999999,99.11402835969659L118.9971875,98.106283614583L119.57484375,97.01510361525249L120.15249999999999,96.00439553077716L120.73015625,94.95890400776685L121.3078125,93.92814238768469L121.88546875,92.8350187772611L122.46312499999999,91.7756779400964L123.04078125,90.70100676326211L123.6184375,89.66460404381111L124.19609375,88.61556239516509L124.77374999999999,87.57080411508265L125.35140625,86.50488247470807L125.9290625,85.42626281815818L126.50671875,84.36375780406426L127.084375,83.34652125856974L127.66203125,82.32084611110906L128.2396875,81.30197445781837L128.81734375,80.2634513074069L129.395,79.17753757559709L129.97265625,78.0987894609975L130.5503125,77.08367342762591L131.12796875,76.07113752571212L131.705625,75.10761575822514L132.28328125000002,74.12603584999529L132.8609375,73.15735493386599L133.43859375,72.13707985332496L134.01625,71.0739813358638L134.59390625,69.97332238382418L135.17156250000002,68.92132653728915L135.74921874999998,67.87479580920412L136.326875,66.79594446906333L136.90453125,65.76889956209392L137.48218749999998,64.80853932984668L138.05984375,63.85259021930693L138.6375,62.94675440319062L139.21515625,61.99978606578316L139.7928125,61.016271277328L140.37046875,60.04642943306345L140.948125,59.12039103843913L141.52578125,58.14943421565382L142.10343749999998,57.234593772190145L142.68109375,56.31782347319365L143.25875,55.340560569511894L143.83640625,54.46940309890926L144.4140625,53.590708390209016L144.99171875,52.68375859379746L145.569375,51.85478898755695L146.14703125,51.037006680599774L146.72468750000002,50.273404506305006L147.30234375,49.47110991366256L147.88,48.657465676591094L148.45765625,47.96754571047941L149.0353125,47.29252787896507L149.61296875,46.61458325824249L150.190625,45.934883695688484L150.76828125,45.36093021741309L151.34593750000002,44.75549114690701L151.92359375,44.28542752353237L152.50125,43.73045655938719L153.07890625000002,43.148273935632304L153.6565625,42.92949728730305L154.23421875,42.632098689256026L154.81187500000001,42.287525789684786L155.38953125,42.021448490270004L155.96718750000002,41.766869999516835L156.54484375,41.554788213699375L157.1225,41.35633977595724L157.70015625000002,41.10673665569478L158.2778125,40.87390847901258L158.85546875,40.53247814913444L159.43312500000002,40.303886074661335L160.01078125,40.14299921681829L160.58843750000003,39.99899934902L161.16609375000002,39.912599428341025L161.74375,39.813293986228246L162.32140625000002,39.694376029595034L162.89906249999999,39.59929137906885L163.47671874999997,39.54224058875318L164.054375,39.42494381003901L164.63203124999998,39.36643268108363L165.20968749999997,39.343192941983524L165.78734375,39.281781345430986L166.36499999999998,39.2330697126134L166.94265625,39.19197579464977L167.5203125,39.13171862905222L168.09796874999998,39.11929820623993L168.675625,39.08811207600633L169.25328125,38.998201031614556L169.8309375,38.89678665188702L170.40859375,38.7884725343451L170.98624999999998,38.676016310727505L171.56390625,38.45427690578059L172.1415625,38.214433081741454L172.71921874999998,38.10612760213732L173.296875,38.219143861697425L173.87453125,38.25135280261417L174.4521875,38.282545105437315L175.02984375,38.15885949124088L175.6075,38.09651506099617L176.18515625,38.05910840284931L176.7628125,38.036664407961226L177.34046874999999,38.02319801102835L177.918125,38.015118172868654L178.49578125,37.98653865681363L179.0734375,37.98125562206669L179.65109375,38.03742049258409L180.22875,38.02365166180207L180.80640625,38.06285811642531L181.3840625,38.015182622947655L181.96171875,37.974710388587916L182.539375,37.91482623315275L183.11703125,37.867028801618545L183.69468750000001,37.885818095790476L184.27234375,37.86149085747429L184.85,37.811293699665235L185.42765625,37.81677621979914L186.0053125,37.83193267015259L186.58296875,37.80542572554534L187.160625,37.82512237360031L187.73828125,37.86067423897952L188.31593750000002,37.858271481660836L188.89359375,37.79749513590405L189.47125,37.701696900471454L190.04890625000002,37.584885531233404L190.6265625,37.45546401832499L191.20421875,37.38967804885306L191.781875,37.36207340544302L192.35953125,37.345510619396975L192.93718750000002,37.335572947769364L193.51484375,37.329610344792805L194.0925,37.31416584473376L194.67015625000002,37.25743365499292L195.2478125,37.15219271150976L195.82546875000003,37.06531653226067L196.40312500000002,37.04878937614351L196.98078125,37.05074002074634L197.55843750000003,37.07564428405424L198.13609375000001,37.10245378031211L198.71374999999998,37.08293866324748L199.29140625,37.142428959260336L199.86906249999998,37.26119170477983L200.44671874999997,37.33244935209154L201.024375,37.39893555363775L201.60203124999998,37.42696033629233L202.1796875,37.43191053099904L202.75734375,37.69594649967039L203.33499999999998,37.80690032778076L203.91265625,37.873472624646986L204.4903125,37.90155132788061L205.06796874999998,37.90653161154769L205.645625,37.95698527145338L206.22328124999999,37.963523590850556L206.8009375,37.97931352076195L207.37859375,38.01252135525503L207.95624999999998,38.0561799324971L208.53390625,38.011175712590706L209.1115625,37.98417318064686L209.68921874999998,37.979836336366624L210.266875,38.01283504461783L210.84453125,38.04450120784166L211.4221875,37.766834239109286L211.99984375,37.57650018132365L212.5775,37.462299746652256L213.15515625,37.37004560930321L213.7328125,37.326560065166895L214.31046874999998,37.288601800411996L214.888125,37.27769377983214L215.46578125,37.294882844030454L216.0434375,37.305196282549474L216.62109375,37.3469851604802L217.19875,37.3245907341462L217.77640625,37.3111540783458L218.3540625,37.23189271861392L218.93171875000002,37.14873508795548L219.509375,37.07510663301417L220.08703125,37.01906488516332L220.6646875,37.009171449612L221.24234375,37.01510232655429L221.82,37.03052779099279L222.39765625,37.01604919310966L222.9753125,36.9480296064013L223.55296875000002,36.883483977830046L224.130625,36.86849047723349L224.70828125,36.82389356205623L225.28593750000002,36.785268474676776L225.86359375,36.750228747363046L226.44125,36.70547103442857L227.01890625000001,36.65488253012166L227.5965625,36.6126624892644L228.17421875000002,36.57546352647696L228.751875,36.56501108707757L229.32953125,36.54687268516484L229.90718750000002,36.54785658229033L230.48484375,36.47724755431398L231.0625,36.16194934740773L231.64015625000002,35.9015687936253L232.2178125,35.73347352308274L232.79546875000003,35.58515087105181L233.37312500000002,35.43682485185471L233.95078125,35.38342779176874L234.52843750000002,35.31579100428488L235.10609374999999,35.3464082980462L235.68374999999997,35.31731092121051L236.26140625,35.32358637165535L236.83906249999998,35.31548470364915L237.41671874999997,35.27502515141312L237.994375,35.25074942007151L238.57203124999998,35.176849289900986L239.1496875,35.12064227352555L239.72734375,35.063186450541124L240.30499999999998,35.028712956750454L240.88265625,35.008028860476045L241.4603125,34.93628371134585L242.03796875,34.928837436687076L242.615625,34.88876885707247L243.19328124999998,34.76979446650586L243.7709375,34.67467595561965L244.34859375,34.59387323592877L244.92624999999998,34.5097907892949L245.50390625,34.435607444768344L246.0815625,34.367363561506174L246.65921875,34.338284169821996L247.236875,34.320836534811505L247.81453125,34.31036795380519L248.3921875,34.387153109726135L248.96984375,34.40949259011953L249.54749999999999,34.42289627835558L250.12515625,34.45467010445637L250.7028125,34.485601338389976L251.28046875,34.45669458904474L251.858125,34.415616662891345L252.43578125,34.39096990719934L253.0134375,34.37618185378411L253.59109375,34.34357514518878L254.16875,34.252811753779945L254.74640625,34.174619842388395L255.3240625,34.13957163382659L255.90171875000001,34.09480883214328L256.479375,34.09168502767953L257.05703125,34.006744440476524L257.6346875,33.87271378362999L258.21234375,33.816029266068306L258.79,33.77015161725817L259.36765625,33.67142339833343L259.9453125,33.58845485381939L260.52296875,33.2776056118766L261.100625,33.09109606671093L261.67828125,32.931724849906104L262.2559375,32.82423518155011L262.83359375000003,32.75974138053652L263.41125,32.673577346835906" style="fill: none;" fill="none"></path></g></g></g></g><g opacity="0.2"><g><g><g><path stroke="rgb(255, 112, 67)" stroke-width="2px" d="M29.460468749999997,151.29999999999998L30.038124999999997,146.85L30.615781249999998,148.33333333333334L31.193437499999998,148.33333333333334L31.77109375,148.9266689300537L32.34875,148.8277758916219L32.92640625,148.33333333333334L33.5040625,148.70416666666668L34.08171875,148.9925900777181L34.659375,148.9266689300537L35.23703125,148.60303287506102L35.8146875,148.33333333333334L36.39234375,148.56153933207193L36.97,148.54523728688557L37.54765625,148.72888851165771L38.1253125,148.70416666666668L38.702968750000004,148.8568604151408L39.280625,148.9925900777181L39.858281250000005,149.11403776804607L40.4359375,149.22333106994628L41.01359375,149.3222241083781L41.591249999999995,149.41212018330893L42.16890625,149.49420191446941L42.746562499999996,149.44583333333333L43.32421875,149.5199988683065L43.901875,149.58846066792805L44.47953125,149.65185248057048L45.0571875,149.3928587595622L45.63484375,149.45862147013347L46.2125,149.5199988683065L46.79015625,149.38602333068846L47.3678125,149.26041666666666L47.94546875,149.3222241083781L48.523125,149.11862678527834L49.100781250000004,149.09619096120198L49.678437499999994,148.9925900777181L50.25609375,148.89459673563638L50.833749999999995,148.8798224767049L51.41140625,148.9418788909912L51.989062499999996,148.85249773661295L52.56671875,148.76747926076254L53.144375,148.8277758916219L53.72203125,148.885271581014L54.2996875,148.80530045827228L54.87734375,148.72888851165771L55.455,148.5913028717041L56.03265625,148.45957374572754L56.6103125,148.20972410837808L57.18796875,148.09115657806396L57.765625,148.0960002263387L58.343281250000004,148.04248243967692L58.920937499999994,147.8769213358561L59.49859375,147.66163361867268L60.076249999999995,147.50925674438477L60.65390625,147.57818253835043L61.231562499999995,147.5386920928955L61.80921875,147.60468114217122L62.386874999999996,147.41264406840006L62.96453125,147.37796332041424L63.5421875,147.19611148834227L64.11984375,147.26339066823323L64.6975,147.2806433359782L65.27515625,147.15608348846436L65.8528125,147.17447916666666L66.43046875,147.1923089981079L67.008125,147.1646447499593L67.58578125000001,147.09353478749594L68.1634375,146.98088035583496L68.74109374999999,146.91449521382648L69.31875,146.85L69.89640625,146.87089106241862L70.4740625,146.72639077504476L71.05171874999999,146.7484022140503L71.629375,146.72972927093505L72.20703125,146.59289054870604L72.7846875,146.38158073425294L73.36234375000001,146.36839650472004L73.94,146.24145444234213L74.51765625,146.2679304122925L75.0953125,146.1454189300537L75.67296875000001,146.13580519358317L76.250625,146.090243212382L76.82828125,146.1172680536906L77.40593750000001,145.96706403096516L77.98359375000001,145.9251008351644L78.56125,145.953098932902L79.13890625,145.8781581878662L79.71656250000001,145.7037868499756L80.29421875000001,145.59999923706053L80.871875,145.3337060928345L81.44953124999999,145.23626162211102L82.0271875,145.14094473520916L82.60484374999999,145.01576811472574L83.18249999999999,144.83014208475748L83.76015625,144.7421076456706L84.3378125,144.40868244171142L84.91546875,144.20446834564208L85.49312499999999,144.15578289031984L86.07078125,143.8983169555664L86.6484375,143.70533491770428L87.22609375,143.46800181070964L87.80375,143.17133401234943L88.38140625,142.84499886830648L88.9590625,142.4L89.53671875,142.07366485595705L90.114375,141.7176680246989L90.69203125,141.12433242797852L91.2696875,140.5903315226237L91.84734375000001,140.11566530863445L92.425,139.61133174896239L93.00265625,139.01800181070965L93.5803125,138.57299728393556L94.15796875000001,137.62366485595703L94.735625,137.14899864196778L95.31328125,136.61499773661296L95.8909375,135.8733338991801L96.46859375000001,135.10199988683064L97.04625,134.3010013580322L97.62390625,133.29233423868817L98.20156250000001,132.34299898147583L98.77921875000001,131.3046673456828L99.35687499999999,130.23666553497313L99.93453124999999,129.3466677983602L100.5121875,128.39733254114788L101.08984375,127.68533322016397L101.66749999999999,126.61733423868814L102.24515625,125.54933242797851L102.8228125,124.71866655349731L103.40046875,123.59133288065591L103.97812499999999,122.55300124486286L104.55578125,121.63333333333334L105.1334375,120.59499886830649L105.71109375,119.40833333333335L106.28875,118.48866542180377L106.86640625,117.33166723251342L107.4440625,116.29333276748658L108.02171875,115.2846656481425L108.599375,114.09800011316935L109.17703125,112.97066644032797L109.7546875,111.93233338991803L110.33234375,110.8346670627594L110.91,109.79633401234945L111.48765625,108.81733282407123L112.0653125,107.83833305040997L112.64296875000001,106.82966734568278L113.220625,105.82100022633871L113.79828125,105.13866683642068L114.3759375,104.3079995473226L114.95359375000001,103.29933384259543L115.53125,102.32033265431723L116.10890625,101.43033350308737L116.68656250000001,100.36233310699463L117.26421875000001,99.73933299382526L117.84187499999999,98.760333220164L118.41953124999999,97.63300025463104L118.9971875,96.59466649691264L119.57484375,95.37833361625671L120.15249999999999,94.48833340406418L120.73015625,93.39066672325134L121.3078125,92.38199995756149L121.88546875,91.19533336162567L122.46312499999999,90.18666668434939L123.04078125,89.08899999801069L123.6184375,88.10999996463457L124.19609375,87.04199992219607L124.77374999999999,86.00366669495901L125.35140625,84.90600001414617L125.9290625,83.80833333333334L126.50671875,82.77000028292338L127.084375,81.82066644032797L127.66203125,80.78233338991801L128.2396875,79.77366697788239L128.81734375,78.70566658178964L129.395,77.54866697788239L129.97265625,76.48066728909811L130.5503125,75.56099937756856L131.12796875,74.5523336728414L131.705625,73.66233310699462L132.28328125000002,72.65366598765057L132.8609375,71.70433355967204L133.43859375,70.60666723251343L134.01625,69.47933355967203L134.59390625,68.32233395576478L135.17156250000002,67.34333276748657L135.74921874999998,66.30499971707663L136.326875,65.17766745885214L136.90453125,64.2283322016398L137.48218749999998,63.367998981475836L138.05984375,62.41866655349732L138.6375,61.58800067901612L139.21515625,60.579333559672044L139.7928125,59.54099909464517L140.37046875,58.591666666666676L140.948125,57.73133344650269L141.52578125,56.692998981475824L142.10343749999998,55.862333106994626L142.68109375,54.9426680246989L143.25875,53.87466621398926L143.83640625,53.162666893005365L144.4140625,52.27266632715861L144.99171875,51.323333899180085L145.569375,50.611334578196214L146.14703125,49.81033322016399L146.72468750000002,49.128001244862865L147.30234375,48.2676680246989L147.88,47.43699932098389L148.45765625,46.932665761311846L149.0353125,46.28000113169353L149.61296875,45.59766632715861L150.190625,44.9153343518575L150.76828125,44.5L151.34593750000002,43.84733254114787L151.92359375,43.580332088470456L152.50125,42.89800011316935L153.07890625000002,42.275000000000006L153.6565625,42.60133231480916L154.23421875,42.186000792185474L154.81187500000001,41.77066644032797L155.38953125,41.62233254114788L155.96718750000002,41.385002263387044L156.54484375,41.23666553497314L157.1225,41.05866711934407L157.70015625000002,40.7323319753011L158.2778125,40.52466621398926L158.85546875,40.02033265431723L159.43312500000002,39.960997962951666L160.01078125,39.90166893005372L160.58843750000003,39.78299954732258L161.16609375000002,39.78299954732258L161.74375,39.664335823059076L162.32140625000002,39.51599909464519L162.89906249999999,39.45666440327963L163.47671874999997,39.45666440327963L164.054375,39.24899864196777L164.63203124999998,39.27866598765056L165.20968749999997,39.30833333333333L165.78734375,39.18966395060222L166.36499999999998,39.160002263387035L166.94265625,39.13033491770427L167.5203125,39.041332880655915L168.09796874999998,39.10066757202148L168.675625,39.041332880655915L169.25328125,38.86333446502685L169.8309375,38.74466508229573L170.40859375,38.62600135803223L170.98624999999998,38.507331975301106L171.56390625,38.121667798360185L172.1415625,37.85466734568277L172.71921874999998,37.94366938273112L173.296875,38.3886682510376L173.87453125,38.299666213989255L174.4521875,38.329333559672044L175.02984375,37.97333106994628L175.6075,38.00299841562907L176.18515625,38.00299841562907L176.7628125,38.00299841562907L177.34046874999999,38.00299841562907L177.918125,38.00299841562907L178.49578125,37.94366938273112L179.0734375,37.97333106994628L179.65109375,38.121667798360185L180.22875,38.00299841562907L180.80640625,38.121667798360185L181.3840625,37.94366938273112L181.96171875,37.914002037048334L182.539375,37.825L183.11703125,37.795332654317214L183.69468750000001,37.914002037048334L184.27234375,37.825L184.85,37.73599796295166L185.42765625,37.825L186.0053125,37.85466734568277L186.58296875,37.765665308634446L187.160625,37.85466734568277L187.73828125,37.914002037048334L188.31593750000002,37.85466734568277L188.89359375,37.70633061726889L189.47125,37.55799954732259L190.04890625000002,37.40966847737629L190.6265625,37.261331748962405L191.20421875,37.29099909464517L191.781875,37.32066644032796L192.35953125,37.32066644032796L192.93718750000002,37.32066644032796L193.51484375,37.32066644032796L194.0925,37.29099909464517L194.67015625000002,37.17233537038167L195.2478125,36.99433129628499L195.82546875000003,36.93500226338704L196.40312500000002,37.02399864196778L196.98078125,37.053665987650554L197.55843750000003,37.11300067901611L198.13609375000001,37.1426680246989L198.71374999999998,37.053665987650554L199.29140625,37.231664403279616L199.86906249999998,37.43933582305908L200.44671874999997,37.43933582305908L201.024375,37.49866485595703L201.60203124999998,37.46899751027424L202.1796875,37.43933582305908L202.75734375,38.09200045267742L203.33499999999998,37.97333106994628L203.91265625,37.97333106994628L204.4903125,37.94366938273112L205.06796874999998,37.914002037048334L205.645625,38.03266576131184L206.22328124999999,37.97333106994628L206.8009375,38.00299841562907L207.37859375,38.06233310699463L207.95624999999998,38.121667798360185L208.53390625,37.94366938273112L209.1115625,37.94366938273112L209.68921874999998,37.97333106994628L210.266875,38.06233310699463L210.84453125,38.09200045267742L211.4221875,37.35033378601074L211.99984375,37.29099909464517L212.5775,37.29099909464517L213.15515625,37.231664403279616L213.7328125,37.261331748962405L214.31046874999998,37.231664403279616L214.888125,37.261331748962405L215.46578125,37.32066644032796L216.0434375,37.32066644032796L216.62109375,37.40966847737629L217.19875,37.29099909464517L217.77640625,37.29099909464517L218.3540625,37.11300067901611L218.93171875000002,37.02399864196778L219.509375,36.96466395060222L220.08703125,36.93500226338704L220.6646875,36.99433129628499L221.24234375,37.02399864196778L221.82,37.053665987650554L222.39765625,36.99433129628499L222.9753125,36.846000226338695L223.55296875000002,36.78666553497314L224.130625,36.846000226338695L224.70828125,36.756998189290364L225.28593750000002,36.727330843607575L225.86359375,36.697669156392415L226.44125,36.63833446502686L227.01890625000001,36.5789997736613L227.5965625,36.54933242797851L228.17421875000002,36.519665082295745L228.751875,36.54933242797851L229.32953125,36.519665082295745L229.90718750000002,36.54933242797851L230.48484375,36.37133401234944L231.0625,35.68900203704834L231.64015625000002,35.51099796295166L232.2178125,35.481330617268874L232.79546875000003,35.36266689300537L233.37312500000002,35.21433582305909L233.95078125,35.30333220163981L234.52843750000002,35.21433582305909L235.10609374999999,35.39233423868816L235.68374999999997,35.27366485595704L236.26140625,35.3329995473226L236.83906249999998,35.30333220163981L237.41671874999997,35.21433582305909L237.994375,35.21433582305909L238.57203124999998,35.065999094645186L239.1496875,35.0363317489624L239.72734375,34.97700271606445L240.30499999999998,34.97700271606445L240.88265625,34.97700271606445L241.4603125,34.82866598765056L242.03796875,34.917668024698884L242.615625,34.82866598765056L243.19328124999998,34.59133288065593L243.7709375,34.531998189290356L244.34859375,34.472669156392406L244.92624999999998,34.383667119344075L245.50390625,34.32433242797852L246.0815625,34.26499773661296L246.65921875,34.29466508229573L247.236875,34.29466508229573L247.81453125,34.29466508229573L248.3921875,34.50233084360759L248.96984375,34.44300181070964L249.54749999999999,34.44300181070964L250.12515625,34.50233084360759L250.7028125,34.531998189290356L251.28046875,34.41333446502685L251.858125,34.353999773661286L252.43578125,34.353999773661286L253.0134375,34.353999773661286L253.59109375,34.29466508229573L254.16875,34.11666666666667L254.74640625,34.0573319753011L255.3240625,34.08699932098389L255.90171875000001,34.027664629618336L256.479375,34.08699932098389L257.05703125,33.87933355967204L257.6346875,33.67166779836018L258.21234375,33.73100248972574L258.79,33.70133514404297L259.36765625,33.523331069946295L259.9453125,33.464002037048346L260.52296875,32.8113317489624L261.100625,32.8113317489624L261.67828125,32.6926680246989L262.2559375,32.66300067901611L262.83359375000003,32.66300067901611L263.41125,32.54433129628499" style="fill: none;" fill="none"></path></g></g></g></g></g></g><g transform="translate(41, 178)" clip-path="url(#clip_1)"><clipPath id="clip_1"><rect width="288" height="22"></rect></clipPath><g><g><line x1="0" y1="0" x2="0" y2="5" style="visibility: inherit;" fill="rgb(0, 0, 0)" stroke="rgb(204, 204, 204)" stroke-width="1px"></line><line x1="28.8828125" y1="0" x2="28.8828125" y2="5" style="visibility: inherit;" fill="rgb(0, 0, 0)" stroke="rgb(204, 204, 204)" stroke-width="1px"></line><line x1="57.765625" y1="0" x2="57.765625" y2="5" style="visibility: inherit;" fill="rgb(0, 0, 0)" stroke="rgb(204, 204, 204)" stroke-width="1px"></line><line x1="86.6484375" y1="0" x2="86.6484375" y2="5" style="visibility: inherit;" fill="rgb(0, 0, 0)" stroke="rgb(204, 204, 204)" stroke-width="1px"></line><line x1="115.53125" y1="0" x2="115.53125" y2="5" style="visibility: inherit;" fill="rgb(0, 0, 0)" stroke="rgb(204, 204, 204)" stroke-width="1px"></line><line x1="144.4140625" y1="0" x2="144.4140625" y2="5" style="visibility: inherit;" fill="rgb(0, 0, 0)" stroke="rgb(204, 204, 204)" stroke-width="1px"></line><line x1="173.296875" y1="0" x2="173.296875" y2="5" style="visibility: inherit;" fill="rgb(0, 0, 0)" stroke="rgb(204, 204, 204)" stroke-width="1px"></line><line x1="202.1796875" y1="0" x2="202.1796875" y2="5" style="visibility: inherit;" fill="rgb(0, 0, 0)" stroke="rgb(204, 204, 204)" stroke-width="1px"></line><line x1="231.0625" y1="0" x2="231.0625" y2="5" style="visibility: inherit;" fill="rgb(0, 0, 0)" stroke="rgb(204, 204, 204)" stroke-width="1px"></line><line x1="259.9453125" y1="0" x2="259.9453125" y2="5" style="visibility: inherit;" fill="rgb(0, 0, 0)" stroke="rgb(204, 204, 204)" stroke-width="1px"></line><line x1="288.828125" y1="0" x2="288.828125" y2="5" style="visibility: inherit;" fill="rgb(0, 0, 0)" stroke="rgb(204, 204, 204)" stroke-width="1px"></line></g><g transform="translate(0, 8)"><text x="0" y="0" dx="0em" dy="0.95em" style="text-anchor: middle; visibility: hidden; font-family: Roboto, sans-serif; font-size: 12px; font-weight: 200;" fill="rgb(50, 49, 63)" stroke="none" stroke-width="1px">-50</text><text x="28.8828125" y="0" dx="0em" dy="0.95em" style="text-anchor: middle; visibility: inherit; font-family: Roboto, sans-serif; font-size: 12px; font-weight: 200;" fill="rgb(50, 49, 63)" stroke="none" stroke-width="1px">0</text><text x="57.765625" y="0" dx="0em" dy="0.95em" style="text-anchor: middle; visibility: inherit; font-family: Roboto, sans-serif; font-size: 12px; font-weight: 200;" fill="rgb(50, 49, 63)" stroke="none" stroke-width="1px">50</text><text x="86.6484375" y="0" dx="0em" dy="0.95em" style="text-anchor: middle; visibility: inherit; font-family: Roboto, sans-serif; font-size: 12px; font-weight: 200;" fill="rgb(50, 49, 63)" stroke="none" stroke-width="1px">100</text><text x="115.53125" y="0" dx="0em" dy="0.95em" style="text-anchor: middle; visibility: inherit; font-family: Roboto, sans-serif; font-size: 12px; font-weight: 200;" fill="rgb(50, 49, 63)" stroke="none" stroke-width="1px">150</text><text x="144.4140625" y="0" dx="0em" dy="0.95em" style="text-anchor: middle; visibility: inherit; font-family: Roboto, sans-serif; font-size: 12px; font-weight: 200;" fill="rgb(50, 49, 63)" stroke="none" stroke-width="1px">200</text><text x="173.296875" y="0" dx="0em" dy="0.95em" style="text-anchor: middle; visibility: inherit; font-family: Roboto, sans-serif; font-size: 12px; font-weight: 200;" fill="rgb(50, 49, 63)" stroke="none" stroke-width="1px">250</text><text x="202.1796875" y="0" dx="0em" dy="0.95em" style="text-anchor: middle; visibility: inherit; font-family: Roboto, sans-serif; font-size: 12px; font-weight: 200;" fill="rgb(50, 49, 63)" stroke="none" stroke-width="1px">300</text><text x="231.0625" y="0" dx="0em" dy="0.95em" style="text-anchor: middle; visibility: inherit; font-family: Roboto, sans-serif; font-size: 12px; font-weight: 200;" fill="rgb(50, 49, 63)" stroke="none" stroke-width="1px">350</text><text x="259.9453125" y="0" dx="0em" dy="0.95em" style="text-anchor: middle; visibility: inherit; font-family: Roboto, sans-serif; font-size: 12px; font-weight: 200;" fill="rgb(50, 49, 63)" stroke="none" stroke-width="1px">400</text><text x="288.828125" y="0" dx="0em" dy="0.95em" style="text-anchor: middle; visibility: hidden; font-family: Roboto, sans-serif; font-size: 12px; font-weight: 200;" fill="rgb(50, 49, 63)" stroke="none" stroke-width="1px">450</text></g><line x1="0" y1="0" x2="288.828125" y2="0" fill="rgb(0, 0, 0)" stroke="rgb(204, 204, 204)" stroke-width="1px"></line></g></g></g></g></svg>