<svg viewBox="0 0 330 200" xmlns="http://www.w3.org/2000/svg"><g><g><g><g><g><line x1="42.390625" y1="177" x2="37.390625" y2="177" style="visibility: inherit;" fill="rgb(0, 0, 0)" stroke="rgb(204, 204, 204)" stroke-width="1px"></line><line x1="42.390625" y1="162.25" x2="37.390625" y2="162.25" style="visibility: inherit;" fill="rgb(0, 0, 0)" stroke="rgb(204, 204, 204)" stroke-width="1px"></line><line x1="42.390625" y1="147.5" x2="37.390625" y2="147.5" style="visibility: inherit;" fill="rgb(0, 0, 0)" stroke="rgb(204, 204, 204)" stroke-width="1px"></line><line x1="42.390625" y1="132.75" x2="37.390625" y2="132.75" style="visibility: inherit;" fill="rgb(0, 0, 0)" stroke="rgb(204, 204, 204)" stroke-width="1px"></line><line x1="42.390625" y1="118.00000000000001" x2="37.390625" y2="118.00000000000001" style="visibility: inherit;" fill="rgb(0, 0, 0)" stroke="rgb(204, 204, 204)" stroke-width="1px"></line><line x1="42.390625" y1="103.24999999999999" x2="37.390625" y2="103.24999999999999" style="visibility: inherit;" fill="rgb(0, 0, 0)" stroke="rgb(204, 204, 204)" stroke-width="1px"></line><line x1="42.390625" y1="88.5" x2="37.390625" y2="88.5" style="visibility: inherit;" fill="rgb(0, 0, 0)" stroke="rgb(204, 204, 204)" stroke-width="1px"></line><line x1="42.390625" y1="73.75" x2="37.390625" y2="73.75" style="visibility: inherit;" fill="rgb(0, 0, 0)" stroke="rgb(204, 204, 204)" stroke-width="1px"></line><line x1="42.390625" y1="59.00000000000001" x2="37.390625" y2="59.00000000000001" style="visibility: inherit;" fill="rgb(0, 0, 0)" stroke="rgb(204, 204, 204)" stroke-width="1px"></line><line x1="42.390625" y1="44.25" x2="37.390625" y2="44.25" style="visibility: inherit;" fill="rgb(0, 0, 0)" stroke="rgb(204, 204, 204)" stroke-width="1px"></line><line x1="42.390625" y1="29.499999999999993" x2="37.390625" y2="29.499999999999993" style="visibility: inherit;" fill="rgb(0, 0, 0)" stroke="rgb(204, 204, 204)" stroke-width="1px"></line><line x1="42.390625" y1="14.750000000000007" x2="37.390625" y2="14.750000000000007" style="visibility: inherit;" fill="rgb(0, 0, 0)" stroke="rgb(204, 204, 204)" stroke-width="1px"></line><line x1="42.390625" y1="0" x2="37.390625" y2="0" style="visibility: inherit;" fill="rgb(0, 0, 0)" stroke="rgb(204, 204, 204)" stroke-width="1px"></line></g><g transform="translate(32.390625, 0)"><text x="0" y="177" dx="0em" dy="0.3em" style="text-anchor: end; visibility: hidden; font-family: Roboto, sans-serif; font-size: 12px; font-weight: 200;" fill="rgb(50, 49, 63)" stroke="none" stroke-width="1px">-30</text><text x="0" y="162.25" dx="0em" dy="0.3em" style="text-anchor: end; visibility: inherit; font-family: Roboto, sans-serif; font-size: 12px; font-weight: 200;" fill="rgb(50, 49, 63)" stroke="none" stroke-width="1px">-25</text><text x="0" y="147.5" dx="0em" dy="0.3em" style="text-anchor: end; visibility: hidden; font-family: Roboto, sans-serif; font-size: 12px; font-weight: 200;" fill="rgb(50, 49, 63)" stroke="none" stroke-width="1px">-20</text><text x="0" y="132.75" dx="0em" dy="0.3em" style="text-anchor: end; visibility: inherit; font-family: Roboto, sans-serif; font-size: 12px; font-weight: 200;" fill="rgb(50, 49, 63)" stroke="none" stroke-width="1px">-15</text><text x="0" y="118.00000000000001" dx="0em" dy="0.3em" style="text-anchor: end; visibility: hidden; font-family: Roboto, sans-serif; font-size: 12px; font-weight: 200;" fill="rgb(50, 49, 63)" stroke="none" stroke-width="1px">-10</text><text x="0" y="103.24999999999999" dx="0em" dy="0.3em" style="text-anchor: end; visibility: inherit; font-family: Roboto, sans-serif; font-size: 12px; font-weight: 200;" fill="rgb(50, 49, 63)" stroke="none" stroke-width="1px">-5</text><text x="0" y="88.5" dx="0em" dy="0.3em" style="text-anchor: end; visibility: hidden; font-family: Roboto, sans-serif; font-size: 12px; font-weight: 200;" fill="rgb(50, 49, 63)" stroke="none" stroke-width="1px">0</text><text x="0" y="73.75" dx="0em" dy="0.3em" style="text-anchor: end; visibility: inherit; font-family: Roboto, sans-serif; font-size: 12px; font-weight: 200;" fill="rgb(50, 49, 63)" stroke="none" stroke-width="1px">5</text><text x="0" y="59.00000000000001" dx="0em" dy="0.3em" style="text-anchor: end; visibility: hidden; font-family: Roboto, sans-serif; font-size: 12px; font-weight: 200;" fill="rgb(50, 49, 63)" stroke="none" stroke-width="1px">10</text><text x="0" y="44.25" dx="0em" dy="0.3em" style="text-anchor: end; visibility: inherit; font-family: Roboto, sans-serif; font-size: 12px; font-weight: 200;" fill="rgb(50, 49, 63)" stroke="none" stroke-width="1px">15</text><text x="0" y="29.499999999999993" dx="0em" dy="0.3em" style="text-anchor: end; visibility: hidden; font-family: Roboto, sans-serif; font-size: 12px; font-weight: 200;" fill="rgb(50, 49, 63)" stroke="none" stroke-width="1px">20</text><text x="0" y="14.750000000000007" dx="0em" dy="0.3em" style="text-anchor: end; visibility: inherit; font-family: Roboto, sans-serif; font-size: 12px; font-weight: 200;" fill="rgb(50, 49, 63)" stroke="none" stroke-width="1px">25</text><text x="0" y="0" dx="0em" dy="0.3em" style="text-anchor: end; visibility: hidden; font-family: Roboto, sans-serif; font-size: 12px; font-weight: 200;" fill="rgb(50, 49, 63)" stroke="none" stroke-width="1px">30</text></g><line x1="42.390625" y1="0" x2="42.390625" y2="177" fill="rgb(0, 0, 0)" stroke="rgb(204, 204, 204)" stroke-width="1px"></line></g></g><g transform="translate(42, 0)" clip-path="url(#clip_0)"><clipPath id="clip_0"><rect width="287" height="177"></rect></clipPath><g><g><g><line x1="0" y1="0" x2="0" y2="177" fill="rgb(0, 0, 0)" stroke="rgb(60, 60, 60)" stroke-width="1px" opacity="0.25"></line><line x1="28.7609375" y1="0" x2="28.7609375" y2="177" fill="rgb(0, 0, 0)" stroke="rgb(60, 60, 60)" stroke-width="1px" opacity="0.25"></line><line x1="57.521875" y1="0" x2="57.521875" y2="177" fill="rgb(0, 0, 0)" stroke="rgb(60, 60, 60)" stroke-width="1px" opacity="0.25"></line><line x1="86.28281249999999" y1="0" x2="86.28281249999999" y2="177" fill="rgb(0, 0, 0)" stroke="rgb(60, 60, 60)" stroke-width="1px" opacity="0.25"></line><line x1="115.04375" y1="0" x2="115.04375" y2="177" fill="rgb(0, 0, 0)" stroke="rgb(60, 60, 60)" stroke-width="1px" opacity="0.25"></line><line x1="143.8046875" y1="0" x2="143.8046875" y2="177" fill="rgb(0, 0, 0)" stroke="rgb(60, 60, 60)" stroke-width="1px" opacity="0.25"></line><line x1="172.56562499999998" y1="0" x2="172.56562499999998" y2="177" fill="rgb(0, 0, 0)" stroke="rgb(60, 60, 60)" stroke-width="1px" opacity="0.25"></line><line x1="201.3265625" y1="0" x2="201.3265625" y2="177" fill="rgb(0, 0, 0)" stroke="rgb(60, 60, 60)" stroke-width="1px" opacity="0.25"></line><line x1="230.0875" y1="0" x2="230.0875" y2="177" fill="rgb(0, 0, 0)" stroke="rgb(60, 60, 60)" stroke-width="1px" opacity="0.25"></line><line x1="258.8484375" y1="0" x2="258.8484375" y2="177" fill="rgb(0, 0, 0)" stroke="rgb(60, 60, 60)" stroke-width="1px" opacity="0.25"></line><line x1="287.609375" y1="0" x2="287.609375" y2="177" fill="rgb(0, 0, 0)" stroke="rgb(60, 60, 60)" stroke-width="1px" opacity="0.25"></line></g><g><line x1="0" y1="177" x2="287.609375" y2="177" fill="rgb(0, 0, 0)" stroke="rgb(60, 60, 60)" stroke-width="1px" opacity="0.25"></line><line x1="0" y1="162.25" x2="287.609375" y2="162.25" fill="rgb(0, 0, 0)" stroke="rgb(60, 60, 60)" stroke-width="1px" opacity="0.25"></line><line x1="0" y1="147.5" x2="287.609375" y2="147.5" fill="rgb(0, 0, 0)" stroke="rgb(60, 60, 60)" stroke-width="1px" opacity="0.25"></line><line x1="0" y1="132.75" x2="287.609375" y2="132.75" fill="rgb(0, 0, 0)" stroke="rgb(60, 60, 60)" stroke-width="1px" opacity="0.25"></line><line x1="0" y1="118.00000000000001" x2="287.609375" y2="118.00000000000001" fill="rgb(0, 0, 0)" stroke="rgb(60, 60, 60)" stroke-width="1px" opacity="0.25"></line><line x1="0" y1="103.24999999999999" x2="287.609375" y2="103.24999999999999" fill="rgb(0, 0, 0)" stroke="rgb(60, 60, 60)" stroke-width="1px" opacity="0.25"></line><line x1="0" y1="88.5" x2="287.609375" y2="88.5" fill="rgb(0, 0, 0)" stroke="rgb(60, 60, 60)" stroke-width="1px" opacity="0.25"></line><line x1="0" y1="73.75" x2="287.609375" y2="73.75" fill="rgb(0, 0, 0)" stroke="rgb(60, 60, 60)" stroke-width="1px" opacity="0.25"></line><line x1="0" y1="59.00000000000001" x2="287.609375" y2="59.00000000000001" fill="rgb(0, 0, 0)" stroke="rgb(60, 60, 60)" stroke-width="1px" opacity="0.25"></line><line x1="0" y1="44.25" x2="287.609375" y2="44.25" fill="rgb(0, 0, 0)" stroke="rgb(60, 60, 60)" stroke-width="1px" opacity="0.25"></line><line x1="0" y1="29.499999999999993" x2="287.609375" y2="29.499999999999993" fill="rgb(0, 0, 0)" stroke="rgb(60, 60, 60)" stroke-width="1px" opacity="0.25"></line><line x1="0" y1="14.750000000000007" x2="287.609375" y2="14.750000000000007" fill="rgb(0, 0, 0)" stroke="rgb(60, 60, 60)" stroke-width="1px" opacity="0.25"></line><line x1="0" y1="0" x2="287.609375" y2="0" fill="rgb(0, 0, 0)" stroke="rgb(60, 60, 60)" stroke-width="1px" opacity="0.25"></line></g></g></g><g><g><line x1="0" y1="88.5" x2="287.609375" y2="88.5" fill="rgb(0, 0, 0)" stroke="rgb(153, 153, 153)" stroke-width="1.5px"></line></g></g><g><g><line x1="28.7609375" y1="0" x2="28.7609375" y2="177" fill="rgb(0, 0, 0)" stroke="rgb(153, 153, 153)" stroke-width="1.5px"></line></g></g><g><g><g><g><g><path stroke="rgb(255, 112, 67)" stroke-width="2px" d="M29.33615625,150.45L29.911375,144.91875L30.48659375,147.74081632653062L31.0618125,147.63014705882352L31.63703125,148.8531922276197L32.21225,148.2854256176155L32.78746875,146.74822355079144L33.3626875,148.25422924304283L33.93790625,149.14147897894014L34.513125,148.48089307702327L35.08834375,146.90281060948044L35.6635625,145.9596332739245L36.23878125,147.75812892449284L36.814,147.6547963790102L37.38921875,148.7734037798096L37.9644375,148.2638985308552L38.53965625,149.13848715715145L39.114875000000005,149.6631455785774L39.69009375,149.97790652741142L40.2653125,150.1667508208934L40.84053125,150.2800529780399L41.415749999999996,150.34803268158436L41.99096875,150.38881993105986L42.5661875,149.2332864832778L43.141406249999996,149.71997327363124L43.716625,150.01198446229645L44.29184375,150.18719085669994L44.8670625,146.75231240468096L45.44228125,148.23138798778362L46.0175,149.11883298886113L46.59271875,147.29129955090468L47.1679375,146.1947796432745L47.743156250000006,147.89686786724278L48.318375,145.37812064818058L48.89359375,146.226872403499L49.4688125,145.556123435181L50.044031249999996,145.15367405861798L50.619249999999994,146.09220443865573L51.19446875,147.83532266707698L51.769687499999996,146.52119359848953L52.34490625,145.7327161584613L52.920125,147.61962969598483L53.495343749999996,148.75177781791777L54.0705625,147.0710666904595L54.64578125,146.06264001417088L55.221000000000004,144.2775840083912L55.79621875,143.20655040499463L56.3714375,140.20393024292937L56.946656250000004,140.76235814576515L57.521875,143.45741488748087L58.097093750000006,143.89444893249063L58.6723125,141.79666935948828L59.247531249999994,139.3580016156887L59.82275,139.07480096941293L60.39796875,143.62488058165061L60.9731875,143.99492834899053L61.54840625,146.5769570093949L62.123625,142.22617420563634L62.69884375,143.1557045233819L63.2740625,140.173422714029L63.849281250000004,144.28405362841752L64.4245,145.57043217705052L64.99971875,142.8022593062303L65.5749375,144.68135558373817L66.15015625000001,145.8088133502429L66.725375,145.30528801014574L67.30059375,143.82317280608743L67.8758125,141.75390368365245L68.45103125,141.69234221019147L69.02625,141.65540532611487L69.60146875,143.99324319566892L70.1766875,140.67594591740138L70.75190625,143.40556755044082L71.327125,143.86334053026448L71.90234375,140.5980043181587L72.4775625,136.2788025908952L73.05278125,139.58728155453713L73.628,138.03236893272228L74.20321875,141.81942135963334L74.7784375,139.37165281578004L75.35365625,141.44299168946802L75.928875,141.50579501368082L76.50409375000001,143.90347700820848L77.0793125,139.4420862049251L77.65453125,140.30525172295506L78.22975000000001,143.18315103377302L78.80496875,141.36989062026382L79.3801875,136.74193437215828L79.95540625000001,136.32516062329495L80.530625,130.17509637397697L81.10584374999999,132.3850578243862L81.6810625,133.7110346946317L82.25628124999999,133.32662081677904L82.83149999999999,130.73597249006744L83.40671875,132.72158349404046L83.9819375,124.47295009642428L84.55715624999999,124.24377005785456L85.132375,130.00626203471273L85.70759375,125.20375722082764L86.28281249999999,124.68225433249657L86.85803125,125.54935259949795L87.43325,120.16961155969875L88.00846874999999,119.30176693581927L88.5836875,112.88106016149156L89.15890625,114.92863609689492L89.734125,113.79718165813696L90.30934375,102.49830899488218L90.8845625,100.43898539692931L91.45978125,101.56339123815758L92.035,99.87803474289456L92.61021875,94.14682084573673L93.1854375,96.60809250744205L93.76065625,80.38485550446522L94.335875,88.35091330267915L94.91109375,91.95054798160749L95.48631250000001,84.67032878896448L96.06153125,80.30219727337868L96.63675,76.5013183640272L97.21196875000001,65.96079101841632L97.7871875,61.9964746110498L98.36240625,56.07788476662988L98.937625,51.346730859977924L99.51284374999999,55.58803851598675L100.08806249999999,54.59282310959204L100.66328125,64.61569386575522L101.23849999999999,56.46941631945313L101.81371874999999,51.581649791671886L102.3889375,54.54898987500312L102.96415625,48.06939392500189L103.53937499999999,47.72163635500113L104.11459375,49.87298181300067L104.6898125,46.44378908780039L105.26503124999999,40.846273452680244L105.84025,44.56776407160813L106.41546875,39.72065844296488L106.99068749999999,40.35239506577892L107.56590625,41.91143703946737L108.141125,36.94686222368042L108.71634375000001,37.50811733420825L109.2915625,39.024870400524954L109.86678125,37.574922240314976L110.44200000000001,41.42495334418899L111.01721875,46.0949720065134L111.5924375,46.53698320390805L112.16765625000001,45.622189922344816L112.742875,43.893313953406896L113.31809375,55.83598837204414L113.89331250000001,54.74159302322648L114.46853125000001,49.364955813935886L115.04375,49.67897348836152L115.61896875000001,52.22738409301691L116.19418750000001,44.316430455810156L116.76940625,56.0898582734861L117.344625,50.17391496409165L117.91984375,45.44434897845499L118.49506249999999,43.786609387073L119.07028125,38.07196563224379L119.6455,41.723179379346284L120.22071874999999,39.19390762760776L120.7959375,37.67634457656466L121.37115625,35.5858067459388L121.946375,40.23148404756326L122.52159375,35.93889042853796L123.0968125,41.623334257122785L123.67203125,41.49400055427367L124.24725,41.41640033256419L124.82246875,37.829840199538516L125.3976875,34.49790411972311L125.97290625,36.03874247183387L126.548125,40.5032454831003L127.12334375,42.001947289860205L127.69856250000001,39.361168373916115L128.27378125,40.136701024349655L128.849,35.882020614609814L129.42421875,33.32921236876587L129.9994375,35.33752742125952L130.57465625,38.90251645275572L131.149875,42.221509871653446L131.72509375,44.21290592299206L132.30031250000002,43.047743553795236L132.87553125,39.98864613227714L133.45075,35.79318767936629L134.02596875,34.455912607619766L134.6011875,34.833547564571845L135.17640624999999,36.24012853874313L135.751625,35.90407712324588L136.32684375,39.24244627394752L136.9020625,41.24546776436851L137.47728125,41.26728065862112L138.0525,40.10036839517265L138.62771874999999,38.22022103710358L139.2029375,35.91213262226216L139.77815625,36.88727957335729L140.353375,38.65236774401437L140.92859375,36.171420646408635L141.5038125,33.50285238784516L142.07903124999999,33.08171143270711L142.65425,32.82902685962424L143.22946875,38.57741611577454L143.8046875,37.30644966946473L144.37990625,35.363869801678845L144.955125,37.7383218810073L145.53034375000001,37.98299312860439L146.1055625,36.94979587716264L146.68078125,35.14987752629757L147.256,32.889926515778555L147.83121875,33.893955909467124L148.4064375,33.316373545680285L148.98165625000001,34.14982412740815L149.556875,32.2898944764449L150.13209375,37.07393668586694L150.7073125,36.40436201152015L151.28253125,33.64261720691209L151.85775,33.165570324147275L152.43296875000001,34.05934219448837L153.00818750000002,62.91560531669302L153.58340625,50.72936319001581L154.158625,42.23761791400947L154.73384375,39.502570748405695L155.3090625,36.68154244904341L155.88428125000002,34.98892546942604L156.45950000000002,31.613355281655632L157.03471875000002,30.768013168993374L157.6099375,31.440807901396017L158.18515625,30.664484740837604L158.760375,33.73869084450257L159.33559375000002,35.58321450670154L159.91081250000002,40.229928704020914L160.48603125000002,39.477957222412556L161.06125,37.84677433344754L161.63646875,38.04806460006853L162.21168749999998,36.988838760041105L162.78690625,35.17330325602466L163.362125,32.90398195361479L163.93734375,33.90238917216888L164.51256249999997,38.04143350330133L165.08778124999998,35.80486010198081L165.66299999999998,32.10291606118847L166.23821875,33.42174963671308L166.8134375,33.03304978202785L167.38865625,36.33982986921672L167.963875,38.323897921530026L168.53909374999998,37.154338752918015L169.11431249999998,36.45260325175081L169.68953125,34.85156195105048L170.26475,32.710937170630295L170.83996875,33.78656230237818L171.4151875,30.891937381426917L171.99040625,38.595162428856156L172.56562499999998,60.91709745731368L173.14084375,55.43025847438822L173.7160625,47.41815508463293L174.29128125,43.790893050779744L174.8665,43.97453583046786L175.44171875,41.724721498280715L176.01693749999998,41.554832898968414L176.59215625,36.73289973938105L177.167375,40.91973984362864L177.74259375,36.35184390617719L178.3178125,37.15110634370631L178.89303125,41.17066380622377L179.46825,38.862398283734265L180.04346875,39.83743897024057L180.6186875,36.88246338214435L181.19390625,37.4694780292866L181.769125,35.46168681757196L182.34434375,33.07701209054319L182.9195625,36.36620725432591L183.49478125000002,33.61972435259556L184.07,35.51183461155733L184.64521875,42.5471007669344L185.2204375,40.868260460160634L185.79565625,37.50095627609638L186.370875,37.840573765657815L186.94609375000002,36.8643442593947L187.5213125,35.09860655563682L188.09653125,32.859163933382085L188.67175,32.69549836002927L189.24696875,32.59729901601755L189.8221875,30.178379409610542L190.39740625000002,33.447027645766326L190.97262500000002,33.0482165874598L191.54784375,32.80892995247588L192.1230625,33.845357971485534L192.69828125,35.647214782891325L193.2735,34.368328869734775L193.84871875000002,33.60099732184087L194.42393750000002,30.78059839310452L194.99915625000003,32.62835903586271L195.574375,38.45701542151761L196.14959375,38.41420925291057L196.7248125,38.388525551746355L197.30003125000002,39.55311533104782L197.87525,36.7118691986287L198.45046875,42.08712151917722L199.02568749999998,45.312272911506334L199.60090624999998,40.167363746903796L200.17612499999998,39.440418248142265L200.75134375,41.36425094888536L201.3265625,37.79855056933121L201.90178125,61.61913034159872L202.47699999999998,48.77147820495925L203.05221874999998,44.602886922975536L203.62743749999998,39.74173215378533L204.20265625,35.64503929227119L204.777875,37.90702357536273L205.35309375,34.54421414521763L205.9283125,34.88652848713059L206.50353124999998,37.451917092278336L207.07874999999999,36.63115025536701L207.65396875,32.598690153220204L208.2291875,33.719214091932116L208.80440625,33.211528455159275L209.379625,36.446917073095555L209.95484375,37.20815024385733L210.53006249999999,35.30489014631439L211.10528125,31.802934087788653L211.6805,30.881760452673195L212.25571875,30.32905627160391L212.8309375,32.35743376296233L213.40615625,31.214460257777393L213.98137499999999,30.528676154666446L214.55659375,32.47720569279986L215.1318125,32.466323415679916L215.70703125,34.81979404940795L216.28225,31.511876429644772L216.85746875,34.24712585778687L217.43268750000001,32.34827551467213L218.00790625,31.20896530880328L218.583125,30.52537918528197L219.15834375,32.47522751116918L219.7335625,36.0051365067015L220.30878125,35.76308190402089L220.88400000000001,34.43784914241253L221.45921875,32.46270948544754L222.0344375,31.277625691268526L222.60965625,29.3865754147611L223.184875,30.61194524885665L223.76009375,28.987167149314008L224.33531250000001,29.192300289588406L224.91053125000002,32.85538017375303L225.48575,33.873228104251815L226.06096875,32.123936862551076L226.6361875,32.254362117530654L227.21140625,31.152617270518387L227.78662500000002,31.67157036231104L228.36184375000002,31.98294221738661L228.93706250000002,30.989765330431972L229.51228125,31.573859198259168L230.0875,29.56431551895551L230.66271875,29.53858931137331L231.23793750000002,30.703153586823984L231.81315625000002,29.041892152094395L232.38837500000002,29.225135291256642L232.96359375,36.41508117475398L233.5388125,34.829048704852404L234.11403124999998,39.77742922291143L234.68925,38.026457533746864L235.26446875,36.975874520248105L235.8396875,36.345524712148865L236.41490624999997,37.14731482728933L236.99012499999998,36.448388896373594L237.56534374999998,32.48903333782417L238.1405625,31.293420002694507L238.71578125,31.756052001616705L239.291,32.03363120097002L239.86621875,31.02017872058201L240.44143749999998,29.232107232349207L241.01665624999998,32.87926433940954L241.591875,31.5275586036457L242.16709375,30.716535162187416L242.7423125,31.409921097312466L243.31753125,29.465952658387476L243.89275,29.479571595032482L244.46796874999998,29.4877429570195L245.0431875,28.31264577421171L245.61840625,29.96758746452704L246.193625,30.96055247871622L246.76884375,31.556331487229738L247.3440625,37.813798892337836L247.91928124999998,35.668279335402694L248.4945,34.380967601241636L249.06971875,35.96858056074496L249.6449375,36.92114833644699L250.22015625,32.7726890018682L250.795375,30.283613401120924L251.37059375,31.15016804067254L251.9458125,29.31010082440354L252.52103125,29.386060494642106L253.09625,29.431636296785268L253.67146875,30.638981778071166L254.2466875,34.903389066842706L254.82190625,35.10203344010562L255.39712500000002,36.401220064063374L255.97234375,33.640732038438024L256.5475625,31.984439223062807L257.12278125,34.53066353383768L257.698,34.878398120302606L258.27321875,31.547038872181552L258.8484375,29.54822332330892L259.42365625,30.708933993985365L259.998875,30.225360396391206L260.57409375000003,28.75521623783474L261.1493125,29.053129742700843L261.72453125,29.231877845620517L262.29975,29.33912670737231" style="fill: none;" fill="none"></path></g></g></g></g><g opacity="0.2"><g><g><g><path stroke="rgb(255, 112, 67)" stroke-width="2px" d="M29.33615625,150.45L29.911375,141.6L30.48659375,150.45L31.0618125,147.5L31.63703125,150.45L32.21225,147.5L32.78746875,144.55L33.3626875,150.45L33.93790625,150.45L34.513125,147.5L35.08834375,144.55L35.6635625,144.55L36.23878125,150.45L36.814,147.5L37.38921875,150.45L37.9644375,147.5L38.53965625,150.45L39.114875000000005,150.45L39.69009375,150.45L40.2653125,150.45L40.84053125,150.45L41.415749999999996,150.45L41.99096875,150.45L42.5661875,147.5L43.141406249999996,150.45L43.716625,150.45L44.29184375,150.45L44.8670625,141.6L45.44228125,150.45L46.0175,150.45L46.59271875,144.55L47.1679375,144.55L47.743156250000006,150.45L48.318375,141.6L48.89359375,147.5L49.4688125,144.55L50.044031249999996,144.55L50.619249999999994,147.5L51.19446875,150.45L51.769687499999996,144.55L52.34490625,144.55L52.920125,150.45L53.495343749999996,150.45L54.0705625,144.55L54.64578125,144.55L55.221000000000004,141.6L55.79621875,141.6L56.3714375,135.7L56.946656250000004,141.6L57.521875,147.5L58.097093750000006,144.55L58.6723125,138.65L59.247531249999994,135.7L59.82275,138.65L60.39796875,150.45L60.9731875,144.55L61.54840625,150.45L62.123625,135.7L62.69884375,144.55L63.2740625,135.7L63.849281250000004,150.45L64.4245,147.5L64.99971875,138.65L65.5749375,147.5L66.15015625000001,147.5L66.725375,144.55L67.30059375,141.6L67.8758125,138.65L68.45103125,141.6L69.02625,141.6L69.60146875,147.5L70.1766875,135.7L70.75190625,147.5L71.327125,144.55L71.90234375,135.7L72.4775625,129.8L73.05278125,144.55L73.628,135.7L74.20321875,147.5L74.7784375,135.7L75.35365625,144.55L75.928875,141.6L76.50409375000001,147.5L77.0793125,132.75L77.65453125,141.6L78.22975000000001,147.5L78.80496875,138.65L79.3801875,129.8L79.95540625000001,135.7L80.530625,120.95L81.10584374999999,135.7L81.6810625,135.7L82.25628124999999,132.75L82.83149999999999,126.85L83.40671875,135.7L83.9819375,112.1L84.55715624999999,123.89999999999999L85.132375,138.65L85.70759375,118.00000000000001L86.28281249999999,123.89999999999999L86.85803125,126.85L87.43325,112.1L88.00846874999999,118.00000000000001L88.5836875,103.24999999999999L89.15890625,118.00000000000001L89.734125,112.1L90.30934375,85.55L90.8845625,97.35000000000001L91.45978125,103.24999999999999L92.035,97.35000000000001L92.61021875,85.55L93.1854375,100.3L93.76065625,56.05L94.335875,100.3L94.91109375,97.35000000000001L95.48631250000001,73.75L96.06153125,73.75L96.63675,70.8L97.21196875000001,50.15L97.7871875,56.05L98.36240625,47.20000000000001L98.937625,44.25L99.51284374999999,61.949999999999996L100.08806249999999,53.10000000000001L100.66328125,79.64999999999999L101.23849999999999,44.25L101.81371874999999,44.25L102.3889375,59.00000000000001L102.96415625,38.35L103.53937499999999,47.20000000000001L104.11459375,53.10000000000001L104.6898125,41.29999999999999L105.26503124999999,32.45L105.84025,50.15L106.41546875,32.45L106.99068749999999,41.29999999999999L107.56590625,44.25L108.141125,29.499999999999993L108.71634375000001,38.35L109.2915625,41.29999999999999L109.86678125,35.39999999999999L110.44200000000001,47.20000000000001L111.01721875,53.10000000000001L111.5924375,47.20000000000001L112.16765625000001,44.25L112.742875,41.29999999999999L113.31809375,73.75L113.89331250000001,53.10000000000001L114.46853125000001,41.29999999999999L115.04375,50.15L115.61896875000001,56.05L116.19418750000001,32.45L116.76940625,73.75L117.344625,41.29999999999999L117.91984375,38.35L118.49506249999999,41.29999999999999L119.07028125,29.499999999999993L119.6455,47.20000000000001L120.22071874999999,35.39999999999999L120.7959375,35.39999999999999L121.37115625,32.45L121.946375,47.20000000000001L122.52159375,29.499999999999993L123.0968125,50.15L123.67203125,41.29999999999999L124.24725,41.29999999999999L124.82246875,32.45L125.3976875,29.499999999999993L125.97290625,38.35L126.548125,47.20000000000001L127.12334375,44.25L127.69856250000001,35.39999999999999L128.27378125,41.29999999999999L128.849,29.499999999999993L129.42421875,29.499999999999993L129.9994375,38.35L130.57465625,44.25L131.149875,47.20000000000001L131.72509375,47.20000000000001L132.30031250000002,41.29999999999999L132.87553125,35.39999999999999L133.45075,29.499999999999993L134.02596875,32.45L134.6011875,35.39999999999999L135.17640624999999,38.35L135.751625,35.39999999999999L136.32684375,44.25L136.9020625,44.25L137.47728125,41.29999999999999L138.0525,38.35L138.62771874999999,35.39999999999999L139.2029375,32.45L139.77815625,38.35L140.353375,41.29999999999999L140.92859375,32.45L141.5038125,29.499999999999993L142.07903124999999,32.45L142.65425,32.45L143.22946875,47.20000000000001L143.8046875,35.39999999999999L144.37990625,32.45L144.955125,41.29999999999999L145.53034375000001,38.35L146.1055625,35.39999999999999L146.68078125,32.45L147.256,29.499999999999993L147.83121875,35.39999999999999L148.4064375,32.45L148.98165625000001,35.39999999999999L149.556875,29.499999999999993L150.13209375,44.25L150.7073125,35.39999999999999L151.28253125,29.499999999999993L151.85775,32.45L152.43296875000001,35.39999999999999L153.00818750000002,106.2L153.58340625,32.45L154.158625,29.499999999999993L154.73384375,35.39999999999999L155.3090625,32.45L155.88428125000002,32.45L156.45950000000002,26.550000000000004L157.03471875000002,29.499999999999993L157.6099375,32.45L158.18515625,29.499999999999993L158.760375,38.35L159.33559375000002,38.35L159.91081250000002,47.20000000000001L160.48603125000002,38.35L161.06125,35.39999999999999L161.63646875,38.35L162.21168749999998,35.39999999999999L162.78690625,32.45L163.362125,29.499999999999993L163.93734375,35.39999999999999L164.51256249999997,44.25L165.08778124999998,32.45L165.66299999999998,26.550000000000004L166.23821875,35.39999999999999L166.8134375,32.45L167.38865625,41.29999999999999L167.963875,41.29999999999999L168.53909374999998,35.39999999999999L169.11431249999998,35.39999999999999L169.68953125,32.45L170.26475,29.499999999999993L170.83996875,35.39999999999999L171.4151875,26.550000000000004L171.99040625,50.15L172.56562499999998,94.4L173.14084375,47.20000000000001L173.7160625,35.39999999999999L174.29128125,38.35L174.8665,44.25L175.44171875,38.35L176.01693749999998,41.29999999999999L176.59215625,29.499999999999993L177.167375,47.20000000000001L177.74259375,29.499999999999993L178.3178125,38.35L178.89303125,47.20000000000001L179.46825,35.39999999999999L180.04346875,41.29999999999999L180.6186875,32.45L181.19390625,38.35L181.769125,32.45L182.34434375,29.499999999999993L182.9195625,41.29999999999999L183.49478125000002,29.499999999999993L184.07,38.35L184.64521875,53.10000000000001L185.2204375,38.35L185.79565625,32.45L186.370875,38.35L186.94609375000002,35.39999999999999L187.5213125,32.45L188.09653125,29.499999999999993L188.67175,32.45L189.24696875,32.45L189.8221875,26.550000000000004L190.39740625000002,38.35L190.97262500000002,32.45L191.54784375,32.45L192.1230625,35.39999999999999L192.69828125,38.35L193.2735,32.45L193.84871875000002,32.45L194.42393750000002,26.550000000000004L194.99915625000003,35.39999999999999L195.574375,47.20000000000001L196.14959375,38.35L196.7248125,38.35L197.30003125000002,41.29999999999999L197.87525,32.45L198.45046875,50.15L199.02568749999998,50.15L199.60090624999998,32.45L200.17612499999998,38.35L200.75134375,44.25L201.3265625,32.45L201.90178125,97.35000000000001L202.47699999999998,29.499999999999993L203.05221874999998,38.35L203.62743749999998,32.45L204.20265625,29.499999999999993L204.777875,41.29999999999999L205.35309375,29.499999999999993L205.9283125,35.39999999999999L206.50353124999998,41.29999999999999L207.07874999999999,35.39999999999999L207.65396875,26.550000000000004L208.2291875,35.39999999999999L208.80440625,32.45L209.379625,41.29999999999999L209.95484375,38.35L210.53006249999999,32.45L211.10528125,26.550000000000004L211.6805,29.499999999999993L212.25571875,29.499999999999993L212.8309375,35.39999999999999L213.40615625,29.499999999999993L213.98137499999999,29.499999999999993L214.55659375,35.39999999999999L215.1318125,32.45L215.70703125,38.35L216.28225,26.550000000000004L216.85746875,38.35L217.43268750000001,29.499999999999993L218.00790625,29.499999999999993L218.583125,29.499999999999993L219.15834375,35.39999999999999L219.7335625,41.29999999999999L220.30878125,35.39999999999999L220.88400000000001,32.45L221.45921875,29.499999999999993L222.0344375,29.499999999999993L222.60965625,26.550000000000004L223.184875,32.45L223.76009375,26.550000000000004L224.33531250000001,29.499999999999993L224.91053125000002,38.35L225.48575,35.39999999999999L226.06096875,29.499999999999993L226.6361875,32.45L227.21140625,29.499999999999993L227.78662500000002,32.45L228.36184375000002,32.45L228.93706250000002,29.499999999999993L229.51228125,32.45L230.0875,26.550000000000004L230.66271875,29.499999999999993L231.23793750000002,32.45L231.81315625000002,26.550000000000004L232.38837500000002,29.499999999999993L232.96359375,47.20000000000001L233.5388125,32.45L234.11403124999998,47.20000000000001L234.68925,35.39999999999999L235.26446875,35.39999999999999L235.8396875,35.39999999999999L236.41490624999997,38.35L236.99012499999998,35.39999999999999L237.56534374999998,26.550000000000004L238.1405625,29.499999999999993L238.71578125,32.45L239.291,32.45L239.86621875,29.499999999999993L240.44143749999998,26.550000000000004L241.01665624999998,38.35L241.591875,29.499999999999993L242.16709375,29.499999999999993L242.7423125,32.45L243.31753125,26.550000000000004L243.89275,29.499999999999993L244.46796874999998,29.499999999999993L245.0431875,26.550000000000004L245.61840625,32.45L246.193625,32.45L246.76884375,32.45L247.3440625,47.20000000000001L247.91928124999998,32.45L248.4945,32.45L249.06971875,38.35L249.6449375,38.35L250.22015625,26.550000000000004L250.795375,26.550000000000004L251.37059375,32.45L251.9458125,26.550000000000004L252.52103125,29.499999999999993L253.09625,29.499999999999993L253.67146875,32.45L254.2466875,41.29999999999999L254.82190625,35.39999999999999L255.39712500000002,38.35L255.97234375,29.499999999999993L256.5475625,29.499999999999993L257.12278125,38.35L257.698,35.39999999999999L258.27321875,26.550000000000004L258.8484375,26.550000000000004L259.42365625,32.45L259.998875,29.499999999999993L260.57409375000003,26.550000000000004L261.1493125,29.499999999999993L261.72453125,29.499999999999993L262.29975,29.499999999999993" style="fill: none;" fill="none"></path></g></g></g></g></g></g><g transform="translate(42, 177)" clip-path="url(#clip_1)"><clipPath id="clip_1"><rect width="287" height="23"></rect></clipPath><g><g><line x1="0" y1="0" x2="0" y2="5" style="visibility: inherit;" fill="rgb(0, 0, 0)" stroke="rgb(204, 204, 204)" stroke-width="1px"></line><line x1="28.7609375" y1="0" x2="28.7609375" y2="5" style="visibility: inherit;" fill="rgb(0, 0, 0)" stroke="rgb(204, 204, 204)" stroke-width="1px"></line><line x1="57.521875" y1="0" x2="57.521875" y2="5" style="visibility: inherit;" fill="rgb(0, 0, 0)" stroke="rgb(204, 204, 204)" stroke-width="1px"></line><line x1="86.28281249999999" y1="0" x2="86.28281249999999" y2="5" style="visibility: inherit;" fill="rgb(0, 0, 0)" stroke="rgb(204, 204, 204)" stroke-width="1px"></line><line x1="115.04375" y1="0" x2="115.04375" y2="5" style="visibility: inherit;" fill="rgb(0, 0, 0)" stroke="rgb(204, 204, 204)" stroke-width="1px"></line><line x1="143.8046875" y1="0" x2="143.8046875" y2="5" style="visibility: inherit;" fill="rgb(0, 0, 0)" stroke="rgb(204, 204, 204)" stroke-width="1px"></line><line x1="172.56562499999998" y1="0" x2="172.56562499999998" y2="5" style="visibility: inherit;" fill="rgb(0, 0, 0)" stroke="rgb(204, 204, 204)" stroke-width="1px"></line><line x1="201.3265625" y1="0" x2="201.3265625" y2="5" style="visibility: inherit;" fill="rgb(0, 0, 0)" stroke="rgb(204, 204, 204)" stroke-width="1px"></line><line x1="230.0875" y1="0" x2="230.0875" y2="5" style="visibility: inherit;" fill="rgb(0, 0, 0)" stroke="rgb(204, 204, 204)" stroke-width="1px"></line><line x1="258.8484375" y1="0" x2="258.8484375" y2="5" style="visibility: inherit;" fill="rgb(0, 0, 0)" stroke="rgb(204, 204, 204)" stroke-width="1px"></line><line x1="287.609375" y1="0" x2="287.609375" y2="5" style="visibility: inherit;" fill="rgb(0, 0, 0)" stroke="rgb(204, 204, 204)" stroke-width="1px"></line></g><g transform="translate(0, 8)"><text x="0" y="0" dx="0em" dy="0.95em" style="text-anchor: middle; visibility: hidden; font-family: Roboto, sans-serif; font-size: 12px; font-weight: 200;" fill="rgb(50, 49, 63)" stroke="none" stroke-width="1px">-50</text><text x="28.7609375" y="0" dx="0em" dy="0.95em" style="text-anchor: middle; visibility: inherit; font-family: Roboto, sans-serif; font-size: 12px; font-weight: 200;" fill="rgb(50, 49, 63)" stroke="none" stroke-width="1px">0</text><text x="57.521875" y="0" dx="0em" dy="0.95em" style="text-anchor: middle; visibility: inherit; font-family: Roboto, sans-serif; font-size: 12px; font-weight: 200;" fill="rgb(50, 49, 63)" stroke="none" stroke-width="1px">50</text><text x="86.28281249999999" y="0" dx="0em" dy="0.95em" style="text-anchor: middle; visibility: inherit; font-family: Roboto, sans-serif; font-size: 12px; font-weight: 200;" fill="rgb(50, 49, 63)" stroke="none" stroke-width="1px">100</text><text x="115.04375" y="0" dx="0em" dy="0.95em" style="text-anchor: middle; visibility: inherit; font-family: Roboto, sans-serif; font-size: 12px; font-weight: 200;" fill="rgb(50, 49, 63)" stroke="none" stroke-width="1px">150</text><text x="143.8046875" y="0" dx="0em" dy="0.95em" style="text-anchor: middle; visibility: inherit; font-family: Roboto, sans-serif; font-size: 12px; font-weight: 200;" fill="rgb(50, 49, 63)" stroke="none" stroke-width="1px">200</text><text x="172.56562499999998" y="0" dx="0em" dy="0.95em" style="text-anchor: middle; visibility: inherit; font-family: Roboto, sans-serif; font-size: 12px; font-weight: 200;" fill="rgb(50, 49, 63)" stroke="none" stroke-width="1px">250</text><text x="201.3265625" y="0" dx="0em" dy="0.95em" style="text-anchor: middle; visibility: inherit; font-family: Roboto, sans-serif; font-size: 12px; font-weight: 200;" fill="rgb(50, 49, 63)" stroke="none" stroke-width="1px">300</text><text x="230.0875" y="0" dx="0em" dy="0.95em" style="text-anchor: middle; visibility: inherit; font-family: Roboto, sans-serif; font-size: 12px; font-weight: 200;" fill="rgb(50, 49, 63)" stroke="none" stroke-width="1px">350</text><text x="258.8484375" y="0" dx="0em" dy="0.95em" style="text-anchor: middle; visibility: inherit; font-family: Roboto, sans-serif; font-size: 12px; font-weight: 200;" fill="rgb(50, 49, 63)" stroke="none" stroke-width="1px">400</text><text x="287.609375" y="0" dx="0em" dy="0.95em" style="text-anchor: middle; visibility: hidden; font-family: Roboto, sans-serif; font-size: 12px; font-weight: 200;" fill="rgb(50, 49, 63)" stroke="none" stroke-width="1px">450</text></g><line x1="0" y1="0" x2="287.609375" y2="0" fill="rgb(0, 0, 0)" stroke="rgb(204, 204, 204)" stroke-width="1px"></line></g></g></g></g></svg>